<svg width="77" height="91" viewBox="0 0 77 91" fill="none" xmlns="http://www.w3.org/2000/svg">
<path opacity="0.15" d="M1.31383 82.4511L64.3666 45.8783C64.6698 45.7007 65.1562 45.7007 65.4594 45.8783L66.9375 46.7411C67.2407 46.9187 67.2407 47.2042 66.9375 47.3755L3.87839 83.9419C3.57519 84.1196 3.0888 84.1196 2.78561 83.9419L1.31383 83.0855C1.01063 82.9079 1.01063 82.6287 1.31383 82.4511Z" fill="#2F59BD"/>
<path d="M66.2301 54.0249L5.12912 89.4431L3.03831 90.6548L0.543232 89.2147C0.24635 89.0371 0 88.6121 0 88.2631V37.1818C0 36.9788 0.0694837 36.7568 0.183183 36.5601C0.3032 36.3571 0.454799 36.1858 0.631665 36.0843L62.6359 0.133223C62.9328 -0.0444075 63.4255 -0.0444075 63.7287 0.133223L66.2111 1.57331L66.2301 54.0249Z" fill="#1E3779"/>
<path d="M5.12912 39.428V89.4436L3.03831 90.6552L0.543232 89.2152C0.24635 89.0375 0 88.6125 0 88.2636V37.1822C0 36.9792 0.0694837 36.7572 0.183183 36.5605L5.12912 39.428Z" fill="#0B2D87"/>
<path d="M4.20678 36.985L65.0677 1.69368C65.971 1.16713 66.71 1.59217 66.71 2.64527V52.4007C66.71 53.4538 65.9773 54.729 65.0677 55.2555L4.20678 90.5468C3.29718 91.0733 2.56445 90.6483 2.56445 89.5952V39.8397C2.56445 38.793 3.3035 37.5115 4.20678 36.985Z" fill="#0030AE"/>
<path opacity="0.2" d="M14.4968 36.985L75.3577 1.69368C76.261 1.16713 77.0001 1.59217 77.0001 2.64527V52.4007C77.0001 53.4538 76.2673 54.729 75.3577 55.2555L14.4968 90.5468C13.5872 91.0733 12.8545 90.6483 12.8545 89.5952V39.8397C12.8545 38.793 13.5935 37.5115 14.4968 36.985Z" fill="#E9FFFB"/>
<path d="M26.9217 44.6421L27.3955 44.3693C28.7788 43.57 30.2822 43.6334 31.3939 44.3884C31.9877 44.788 33.4974 45.6064 33.4974 45.6064L34.3122 50.1677C35.1965 52.4515 37.6348 53.3143 39.7445 52.0836L39.7824 52.0582C41.8985 50.8338 43.7493 47.8521 43.9261 45.4097L45.878 29.2961C46.0485 26.8474 47.8298 23.9165 49.8575 22.7365C50.9882 22.0767 52.2199 22.0768 53.2306 22.6033C54.0265 23.0157 55.7699 24.0814 55.7699 24.0814L57.4817 33.7686C58.3281 36.0715 60.5263 37.0548 62.396 35.97C63.4256 35.3736 64.5058 35.418 65.3775 35.9763C66.085 36.4331 67.4872 37.2261 67.4872 37.2261L69.2749 46.8561L23.0875 76.6092L20.5229 75.1247L22.6896 51.2779C22.9106 48.8418 24.8056 45.8665 26.9217 44.6421Z" fill="#43DFC6"/>
<path d="M29.4862 46.1269L29.96 45.8541C32.076 44.6297 34.4827 45.4291 35.3354 47.6431L36.883 51.6525C37.7673 53.9363 40.2056 54.7991 42.3153 53.5683L42.3532 53.543C44.4693 52.3186 46.3201 49.337 46.4969 46.8945L48.4425 30.7809C48.8278 27.7549 50.3943 25.4013 52.422 24.2277C54.4496 23.054 56.7741 23.9676 57.6206 26.2641L60.0462 35.2534C60.8926 37.5563 63.0908 38.5396 64.9605 37.4548C66.8302 36.37 68.8705 37.4104 69.5085 39.7766L71.833 48.3473L23.0938 76.6158L25.2604 52.769C25.4814 50.3266 27.3764 47.3576 29.4862 46.1269Z" fill="#1FC1A7"/>
<path d="M23.4795 38.5825C23.4795 39.09 23.9343 39.2423 24.4965 38.9124L33.5672 33.6533C34.1294 33.3297 34.5842 32.6509 34.5842 32.1434C34.5842 31.6359 34.1294 31.49 33.5672 31.8135L24.4965 37.0727C23.9343 37.3962 23.4795 38.075 23.4795 38.5825Z" fill="#1FC1A7"/>
<path d="M23.4795 42.3011C23.4795 42.8086 23.9343 42.9546 24.4965 42.631L33.5672 37.3719C34.1294 37.0484 34.5842 36.3696 34.5842 35.862C34.5842 35.3545 34.1294 35.2023 33.5672 35.5322L24.4965 40.7913C23.9343 41.1212 23.4795 41.7936 23.4795 42.3011Z" fill="#1FC1A7"/>
</svg>
