<svg width="96" height="134" viewBox="0 0 96 134" fill="none" xmlns="http://www.w3.org/2000/svg">
<path opacity="0.15" d="M94.5831 107.602L50.2219 132.648C49.551 133.03 48.6752 133.212 47.7993 133.212C46.9235 133.212 46.0476 133.03 45.3768 132.648L1.01554 107.602C0.344671 107.228 0.00927734 106.736 0.00927734 106.235C0.00927734 105.88 0.186319 105.515 0.540389 105.206C0.670835 105.087 0.829187 104.969 1.01554 104.869L45.3768 79.8318C46.7092 79.0756 48.8802 79.0756 50.2219 79.8318L94.5831 104.869C95.9155 105.625 95.9155 106.855 94.5831 107.602Z" fill="#2F59BD"/>
<path d="M94.5831 105.405L50.2219 130.442C49.551 130.824 48.6752 131.006 47.7993 131.006C46.9235 131.006 46.0569 130.824 45.386 130.451L1.01554 105.405C0.344671 105.022 0.00927734 104.53 0.00927734 104.038C0.00927734 103.537 0.344671 103.045 1.01554 102.672L8.05966 98.6992L45.3768 77.6257C46.7092 76.8695 48.8802 76.8695 50.2219 77.6257L94.5831 102.672C95.9155 103.419 95.9155 104.649 94.5831 105.405Z" fill="#DCEEFF"/>
<path d="M47.7993 121.129V131.005C46.9235 131.005 46.0569 130.823 45.386 130.449L1.01554 105.403C0.344671 105.021 0.00927734 104.529 0.00927734 104.037V95.4817C0.00927734 95.1264 0.186319 94.7619 0.540389 94.4521L8.05966 98.6978L47.7993 121.129Z" fill="#A5CBFA"/>
<path d="M94.5831 96.8488L50.2219 121.895C49.551 122.277 48.6752 122.46 47.7993 122.46C46.9235 122.46 46.0476 122.277 45.3768 121.895L1.01554 96.8488C0.344671 96.4753 0.00927734 95.9833 0.00927734 95.4822C0.00927734 95.1269 0.186319 94.7624 0.540389 94.4527C0.670835 94.3342 0.829187 94.2158 1.01554 94.1156L45.3768 69.0789C46.7092 68.3227 48.8802 68.3227 50.2219 69.0789L94.5831 94.1156C95.9155 94.8718 95.9155 96.1017 94.5831 96.8488Z" fill="#DCEEFF"/>
<path d="M47.7901 69.4238C48.5355 69.4238 49.253 69.5878 49.7468 69.8702L94.108 94.9069C94.4993 95.1347 94.6391 95.3625 94.6391 95.49C94.6391 95.6176 94.4993 95.8453 94.108 96.064L49.7468 121.11C49.253 121.392 48.5448 121.547 47.7901 121.547C47.0353 121.547 46.3272 121.383 45.8334 121.101L1.46287 96.0549C1.13676 95.8727 0.922435 95.654 0.922435 95.4809C0.922435 95.3807 1.00629 95.2531 1.15538 95.1165C1.24855 95.0345 1.34174 94.9616 1.46287 94.8978L45.8241 69.8611C46.3365 69.5787 47.054 69.4238 47.7901 69.4238ZM47.7901 68.5127C46.9142 68.5127 46.0384 68.704 45.3675 69.0776L1.00632 94.1143C0.819966 94.2145 0.661558 94.3329 0.531111 94.4514C0.177042 94.7612 0 95.1256 0 95.4809C0 95.982 0.33545 96.474 1.00632 96.8475L45.3675 121.893C46.0384 122.276 46.9142 122.458 47.7901 122.458C48.6659 122.458 49.5418 122.276 50.2127 121.893L94.5738 96.8475C95.9063 96.1005 95.9063 94.8705 94.5738 94.1143L50.2127 69.0776C49.5511 68.6949 48.6752 68.5127 47.7901 68.5127Z" fill="white"/>
<path d="M46.1785 75.0282L11.5542 94.571C10.6597 95.0721 10.6597 95.8921 11.5542 96.3932L46.1785 115.936C47.073 116.437 48.5172 116.437 49.4024 115.936L84.0267 96.3932C84.9211 95.8921 84.9211 95.0721 84.0267 94.571L49.4024 75.0282C48.5172 74.5271 47.073 74.5271 46.1785 75.0282Z" fill="#0030AE"/>
<path d="M47.7992 74.6543C47.2122 74.6543 46.6345 74.7819 46.1873 75.0278L11.563 94.5707C10.6685 95.0718 10.6685 95.8918 11.563 96.3929L11.8425 96.5477L47.7992 76.2487V74.6543Z" fill="#031F60"/>
<path d="M28.8755 65.5623L55.3655 50.6113L66.7237 57.0163L40.2243 71.9763L28.8755 65.5623Z" fill="#2FE3C6"/>
<path d="M28.8755 95.1993C28.8755 97.7139 30.6832 100.775 32.9101 102.033L36.1898 103.882C38.4168 105.139 42.032 105.139 44.2589 103.882L62.6612 93.4956C64.8882 92.2383 66.6958 89.177 66.6958 86.6624L66.7144 57.0156L40.2244 71.9757L28.8662 65.5616V95.1993H28.8755Z" fill="#1FC1A7"/>
<path d="M54.5384 74.8153C57.0634 73.3849 59.1133 74.542 59.1133 77.4028C59.1133 80.2636 57.0634 83.7349 54.5384 85.1562C52.0133 86.5866 49.9634 85.4295 49.9634 82.5687C49.9634 79.7079 52.0133 76.2366 54.5384 74.8153Z" fill="#344593"/>
<path d="M53.0289 89.2019C53.0289 90.4045 53.709 90.9967 54.5383 90.523C55.3769 90.0492 56.0478 88.6826 56.0478 87.4799V75.7178L53.0195 77.4215V89.2019H53.0289Z" fill="#344593"/>
<path d="M38.3816 63.5183C36.9001 64.3565 36.9001 65.7049 38.3816 66.5431C39.8631 67.3813 42.2578 67.3813 43.7299 66.5431C45.2114 65.7049 45.2114 64.3565 43.7299 63.5183C42.2578 62.6801 39.8631 62.6801 38.3816 63.5183Z" fill="#344593"/>
<path d="M53.5227 54.9714C52.0412 55.8096 52.0412 57.158 53.5227 57.9962C55.0042 58.8344 57.3989 58.8344 58.8711 57.9962C60.3526 57.158 60.3526 55.8096 58.8711 54.9714C57.3989 54.1332 55.0042 54.1332 53.5227 54.9714Z" fill="#344593"/>
<path d="M37.2734 50.353V65.0307H44.8393V50.599C44.8393 50.271 45.0164 49.9704 45.3052 49.8064L51.7157 46.1893C52.0232 46.0162 52.4146 46.2349 52.4146 46.5811V56.4755H59.9805V41.6521C59.9805 36.878 56.5236 34.9283 52.2934 37.3153L41.308 43.5199C39.0904 44.768 37.2734 47.8475 37.2734 50.353Z" fill="#344593"/>
<path d="M32.9101 102.033L34.55 102.962L36.1898 103.892C37.308 104.52 38.7615 104.839 40.2244 104.839V71.9854L28.8662 65.5713V95.1999C28.8755 97.7145 30.6832 100.776 32.9101 102.033Z" fill="#47EACE"/>
<path opacity="0.5" d="M47.7619 20.0257C47.5569 20.0257 47.3519 20.0257 47.1469 19.9984C47.1376 19.9984 47.119 19.9984 47.1097 19.9893C46.914 19.9711 46.7183 19.9346 46.532 19.8982C46.4109 19.8708 46.2897 19.8253 46.1686 19.7888C46.094 19.7615 46.0195 19.7524 45.945 19.7251C45.7493 19.6522 45.5722 19.5702 45.3859 19.47L10.8921 0V95.482C10.9107 95.8647 11.153 96.1654 11.5629 96.3931L46.1872 115.936C46.709 116.182 47.2308 116.3 47.7526 116.31C47.7712 116.31 47.7805 116.319 47.7992 116.319V20.0257C47.7805 20.0257 47.7712 20.0257 47.7619 20.0257Z" fill="url(#paint0_linear)"/>
<path opacity="0.5" d="M47.5577 20.6843C47.7647 20.6843 47.9717 20.6843 48.1787 20.6571C48.1881 20.6571 48.2069 20.6571 48.2163 20.648C48.4139 20.6299 48.6115 20.5937 48.7997 20.5574C48.922 20.5302 49.0444 20.4849 49.1667 20.4487C49.242 20.4215 49.3172 20.4124 49.3925 20.3852C49.5901 20.3127 49.7689 20.2311 49.9571 20.1314L84.7905 0.763672V95.7446C84.7717 96.1253 84.5271 96.4244 84.1131 96.651L49.1478 116.091C48.6209 116.336 48.094 116.454 47.5671 116.463C47.5483 116.463 47.5389 116.472 47.52 116.472V20.6843C47.5389 20.6843 47.5482 20.6843 47.5577 20.6843Z" fill="url(#paint1_linear)"/>
<defs>
<linearGradient id="paint0_linear" x1="8.14553" y1="95.0271" x2="34.4118" y2="47.2531" gradientUnits="userSpaceOnUse">
<stop stop-color="#1FC1A7"/>
<stop offset="1" stop-color="#1FC1A7" stop-opacity="0"/>
</linearGradient>
<linearGradient id="paint1_linear" x1="87.5641" y1="95.2921" x2="61.6478" y2="47.4392" gradientUnits="userSpaceOnUse">
<stop stop-color="#1FC1A7"/>
<stop offset="1" stop-color="#1FC1A7" stop-opacity="0"/>
</linearGradient>
</defs>
</svg>
