<svg width="105" height="144" viewBox="0 0 105 144" fill="none" xmlns="http://www.w3.org/2000/svg">
<path opacity="0.15" d="M103.26 114.422L54.3772 142.62C53.7455 142.987 52.9219 143.162 52.0984 143.162C51.2748 143.162 50.4513 142.987 49.8195 142.62L0.947649 114.428C0.31588 114.067 0 113.593 0 113.113C0 112.769 0.163574 112.419 0.502022 112.126C0.626119 112.013 0.772785 111.9 0.947649 111.799L49.8308 83.6063C51.083 82.8786 53.125 82.8786 54.3885 83.6063L103.26 111.793C104.513 112.521 104.513 113.706 103.26 114.422Z" fill="#6B99D1"/>
<path d="M103.261 110.401L54.3775 138.594C53.7457 138.961 52.9221 139.135 52.0986 139.135C51.275 139.135 50.4571 138.961 49.831 138.6L0.953508 110.407C0.32174 110.04 0.00585938 109.566 0.00585938 109.093C0.00585938 108.613 0.32174 108.139 0.953508 107.778L7.58144 103.959L49.8366 79.5799C51.0889 78.8523 53.1308 78.8523 54.3944 79.5799L103.266 107.773C104.513 108.495 104.513 109.674 103.261 110.401Z" fill="#DCEEFF"/>
<path d="M52.0986 129.636V139.135C51.275 139.135 50.4571 138.96 49.831 138.599L0.953508 110.406C0.32174 110.04 0.00585938 109.566 0.00585938 109.092V100.862C0.00585938 100.518 0.169433 100.168 0.507881 99.875L7.58144 103.959L52.0986 129.636Z" fill="#A5CBFA"/>
<path d="M52.0977 129.635V139.134C52.9212 139.134 53.7391 138.959 54.3653 138.598L103.254 110.4C103.886 110.033 104.202 109.559 104.202 109.085V100.855C104.202 100.511 104.038 100.161 103.705 99.8682L96.6317 103.952L52.0977 129.635Z" fill="#C8E2FF"/>
<path d="M103.26 102.17L54.3772 130.368C53.7455 130.735 52.9219 130.91 52.0984 130.91C51.2748 130.91 50.4513 130.735 49.8195 130.368L0.947649 102.176C0.31588 101.815 0 101.341 0 100.861C0 100.517 0.163574 100.168 0.502022 99.8742C0.626119 99.7614 0.772785 99.6485 0.947649 99.547L49.8308 71.3543C51.083 70.6267 53.125 70.6267 54.3885 71.3543L103.26 99.5414C104.513 100.269 104.513 101.454 103.26 102.17Z" fill="#DCEEFF"/>
<path d="M52.104 71.3766C52.8542 71.3766 53.5875 71.5458 54.1065 71.8448L102.973 100.032C103.39 100.274 103.633 100.579 103.633 100.861C103.633 101.143 103.39 101.442 102.973 101.685L54.0896 129.883C53.5762 130.182 52.8655 130.351 52.0927 130.351C51.3199 130.351 50.6148 130.187 50.0959 129.883L1.22404 101.685C0.795342 101.442 0.564079 101.149 0.564079 100.861C0.564079 100.675 0.676899 100.472 0.885609 100.286C0.987143 100.19 1.09995 100.105 1.22969 100.037L50.1128 71.8448C50.6261 71.5458 51.3538 71.3766 52.104 71.3766ZM52.104 70.8125C51.2804 70.8125 50.4569 70.993 49.8308 71.3597L0.947649 99.5523C0.772785 99.6482 0.626119 99.7611 0.502022 99.8795C0.169215 100.178 0 100.528 0 100.867C0 101.352 0.31588 101.82 0.947649 102.181L49.8195 130.374C50.4513 130.74 51.2748 130.915 52.0984 130.915C52.9219 130.915 53.7455 130.74 54.3772 130.374L103.26 102.175C104.513 101.459 104.513 100.274 103.26 99.5467L54.3885 71.3597C53.7568 70.993 52.9332 70.8125 52.104 70.8125Z" fill="white"/>
<path d="M50.5923 77.0787L10.8755 99.9859C10.035 100.471 10.035 101.255 10.8755 101.74L50.5867 124.642C51.4271 125.127 52.7866 125.127 53.6214 124.642L93.3382 101.735C94.1787 101.249 94.1787 100.465 93.3382 99.9803L53.6327 77.0787C52.7866 76.5936 51.4271 76.5936 50.5923 77.0787Z" fill="#2F59BD"/>
<path d="M93.3323 99.9882L53.6267 77.0866C53.2093 76.844 52.6565 76.7256 52.1094 76.7256V78.2655L93.0728 101.895L93.3323 101.743C94.1728 101.257 94.1728 100.468 93.3323 99.9882Z" fill="#1E3779"/>
<path d="M52.1097 76.7188C51.5625 76.7188 51.0097 76.8372 50.5923 77.0798L10.8755 99.987C10.035 100.472 10.035 101.256 10.8755 101.741L11.1406 101.894L52.1153 78.2587L52.1097 76.7188Z" fill="#031F60"/>
<path d="M52.1104 85.918V113.112C52.8098 113.112 53.5036 112.96 54.0395 112.65L79.1974 98.1246C80.2635 97.5098 81.1266 96.015 81.1266 94.7853V85.918H52.1104Z" fill="#43DFC6"/>
<path d="M23.0938 85.9189V94.7863C23.0938 96.0159 23.9568 97.5108 25.0229 98.1256L50.1808 112.651C50.7111 112.955 51.4105 113.113 52.11 113.113V85.9189H23.0938Z" fill="#1FC1A7"/>
<path d="M50.1757 102.216L23.8953 87.0307C22.8292 86.4159 22.8292 85.4175 23.8953 84.8026L50.1814 69.6232C51.2475 69.0084 52.9736 69.0084 54.0397 69.6232L80.3258 84.8026C81.3919 85.4175 81.3919 86.4159 80.3258 87.0307L54.0284 102.216C52.9623 102.831 51.2362 102.831 50.1757 102.216Z" fill="#43DFC6"/>
<path d="M29.2879 85.1792L50.8301 72.7356C51.5409 72.3238 52.6916 72.3238 53.4023 72.7356L74.9502 85.1792C75.6609 85.5909 75.6609 86.2509 74.9502 86.6627L53.3911 99.1063C52.6803 99.5181 51.5296 99.5181 50.8189 99.1063L29.2879 86.6683C28.5772 86.2509 28.5772 85.5909 29.2879 85.1792Z" stroke="white" stroke-miterlimit="10" stroke-linecap="round"/>
<path d="M52.7421 75.8496L69.6927 85.5462C70.048 85.7492 70.048 86.082 69.6927 86.2907L52.7421 95.9985C52.3867 96.2016 51.8114 96.2016 51.456 95.9985L34.6464 86.2907C34.291 86.0877 34.291 85.7549 34.6464 85.5462L51.456 75.844C51.8114 75.6409 52.3867 75.6409 52.7421 75.8496Z" stroke="white" stroke-miterlimit="10" stroke-linecap="round"/>
<path d="M29.767 95.4856C29.767 94.9046 29.3609 94.1939 28.8532 93.9062C28.5994 93.7595 28.3681 93.7483 28.1989 93.8498L24.476 95.999C23.7201 96.4333 23.0996 97.505 23.0996 98.3794V103.496C23.0996 103.687 23.2237 103.879 23.4776 104.02C23.9796 104.308 24.7975 104.313 25.2995 104.02C25.5534 103.874 25.6775 103.682 25.6775 103.496V98.4696C25.6775 98.3568 25.7395 98.2496 25.8354 98.1932L29.4906 96.0836C29.4906 96.0836 29.4963 96.0836 29.4963 96.0779L29.5076 96.0723C29.6655 95.9708 29.767 95.7677 29.767 95.4856Z" fill="url(#paint0_linear)"/>
<path d="M35.3461 98.7239C35.3461 98.1429 34.94 97.4322 34.4323 97.1445C34.1785 96.9978 33.9472 96.9866 33.778 97.0881L30.0551 99.2372C29.2992 99.6716 28.6787 100.743 28.6787 101.618V106.734C28.6787 106.926 28.8028 107.112 29.0567 107.258C29.5587 107.552 30.3766 107.552 30.8786 107.258C31.1325 107.112 31.2566 106.92 31.2566 106.734V101.708C31.2566 101.595 31.3186 101.488 31.4145 101.432L35.0697 99.3218C35.0697 99.3218 35.0754 99.3219 35.0754 99.3162L35.0866 99.3106C35.2502 99.2034 35.3461 99.006 35.3461 98.7239Z" fill="url(#paint1_linear)"/>
<path d="M40.9301 101.96C40.9301 101.379 40.524 100.669 40.0163 100.381C39.7625 100.234 39.5312 100.223 39.362 100.324L35.6391 102.474C34.8832 102.908 34.2627 103.98 34.2627 104.854V109.965C34.2627 110.156 34.3868 110.348 34.6406 110.489C35.1427 110.782 35.9606 110.782 36.4626 110.489C36.7164 110.342 36.8405 110.151 36.8405 109.965V104.939C36.8405 104.826 36.9026 104.719 36.9985 104.662L40.6537 102.553C40.6537 102.553 40.6594 102.553 40.6594 102.547L40.6706 102.541C40.8286 102.44 40.9301 102.242 40.9301 101.96Z" fill="url(#paint2_linear)"/>
<path d="M46.5092 105.2C46.5092 104.619 46.1031 103.908 45.5954 103.62C45.3416 103.473 45.1103 103.462 44.9411 103.564L41.2182 105.713C40.4623 106.147 39.8418 107.219 39.8418 108.093V113.209C39.8418 113.401 39.9659 113.593 40.2197 113.734C40.7218 114.027 41.5397 114.027 42.0417 113.734C42.2955 113.587 42.4196 113.396 42.4196 113.209V108.183C42.4196 108.071 42.4817 107.963 42.5776 107.907L46.2328 105.797C46.2328 105.797 46.2385 105.797 46.2385 105.792L46.2497 105.786C46.4133 105.679 46.5092 105.482 46.5092 105.2Z" fill="url(#paint3_linear)"/>
<path d="M74.458 95.4856C74.458 94.9046 74.8641 94.1939 75.3718 93.9062C75.6256 93.7595 75.8569 93.7483 76.0261 93.8498L79.7491 95.999C80.5049 96.4333 81.1254 97.505 81.1254 98.3794V103.496C81.1254 103.687 81.0013 103.879 80.7475 104.02C80.2455 104.308 79.4275 104.313 78.9255 104.02C78.6717 103.874 78.5476 103.682 78.5476 103.496V98.4696C78.5476 98.3568 78.4855 98.2496 78.3896 98.1932L74.7344 96.0836C74.7344 96.0836 74.7288 96.0836 74.7288 96.0779L74.7175 96.0723C74.5539 95.9708 74.458 95.7677 74.458 95.4856Z" fill="url(#paint4_linear)"/>
<path d="M68.874 98.7249C68.874 98.1439 69.2802 97.4332 69.7878 97.1455C70.0417 96.9988 70.2729 96.9875 70.4422 97.0891L74.1651 99.2382C74.9209 99.6725 75.5414 100.744 75.5414 101.619V106.735C75.5414 106.927 75.4173 107.113 75.1635 107.259C74.6615 107.553 73.8436 107.553 73.3415 107.259C73.0877 107.113 72.9636 106.921 72.9636 106.735V101.709C72.9636 101.596 72.9016 101.489 72.8057 101.432L69.1504 99.3228C69.1504 99.3228 69.1448 99.3228 69.1448 99.3172L69.1335 99.3115C68.9699 99.2044 68.874 99.0069 68.874 98.7249Z" fill="url(#paint5_linear)"/>
<path d="M63.29 101.961C63.29 101.38 63.6962 100.669 64.2039 100.382C64.4577 100.235 64.689 100.224 64.8582 100.325L68.5811 102.475C69.337 102.909 69.9575 103.981 69.9575 104.855V109.966C69.9575 110.157 69.8334 110.349 69.5795 110.49C69.0775 110.783 68.2596 110.783 67.7576 110.49C67.5037 110.343 67.3796 110.152 67.3796 109.966V104.94C67.3796 104.827 67.3176 104.72 67.2217 104.663L63.5664 102.554C63.5664 102.554 63.5608 102.554 63.5608 102.548L63.5495 102.542C63.3916 102.441 63.29 102.243 63.29 101.961Z" fill="url(#paint6_linear)"/>
<path d="M57.7109 105.2C57.7109 104.619 58.1171 103.908 58.6247 103.62C58.8786 103.473 59.1099 103.462 59.2791 103.564L63.002 105.713C63.7579 106.147 64.3784 107.219 64.3784 108.093V113.209C64.3784 113.401 64.2543 113.593 64.0004 113.734C63.4984 114.027 62.6805 114.027 62.1784 113.734C61.9246 113.587 61.8005 113.396 61.8005 113.209V108.183C61.8005 108.071 61.7385 107.963 61.6426 107.907L57.9873 105.797C57.9873 105.797 57.9817 105.797 57.9817 105.792L57.9704 105.786C57.8068 105.679 57.7109 105.482 57.7109 105.2Z" fill="url(#paint7_linear)"/>
<path d="M65.9225 46.4264C69.0015 54.1154 65.2591 62.842 57.5735 65.9176C52.8343 67.8126 47.7004 67.122 43.7436 64.5125C41.2736 62.8896 39.2629 60.5217 38.0824 57.572C35.0034 49.8831 38.7424 41.153 46.4313 38.0775C49.3844 36.8935 52.494 36.72 55.3757 37.3868C59.9925 38.4585 64.0275 41.6906 65.9225 46.4264Z" fill="#B5DEFF"/>
<path d="M50.2075 39.2036C49.5202 39.2138 48.6424 39.4588 49.2787 39.8466C49.9149 40.2379 50.3231 40.2719 50.3265 40.7788C50.3299 41.2858 49.9999 41.8165 50.1632 42.1737C50.3265 42.531 50.5953 42.9494 50.8539 42.8304C51.1158 42.7079 51.8303 41.9118 52.2352 41.9492C52.6434 41.9866 54.0315 42.0479 54.2322 41.5954C54.433 41.1429 54.6371 41.1735 54.9705 40.67C55.3039 40.1664 55.2835 39.4928 54.8787 39.4894C54.4738 39.486 54.4194 39.6595 53.7423 39.6085C53.0653 39.5609 52.7489 39.1118 52.0889 39.2274C51.4322 39.3431 50.711 39.1934 50.2075 39.2036Z" fill="#3A52AA"/>
<path d="M47.6559 39.3809C46.8768 39.796 45.2404 40.4254 44.4817 40.2111C44.104 40.1056 43.655 39.9559 43.1787 39.864C40.2868 41.9666 38.1979 45.0728 37.3779 48.6247C37.5685 49.0159 37.7998 49.3765 38.055 49.6725C38.6503 50.37 39.2627 50.4584 40.0146 50.6047C40.7699 50.751 40.5318 51.1729 40.9026 51.6152C41.2734 52.0575 41.4299 52.316 41.8518 52.5542C42.2737 52.7923 41.7021 53.238 41.5354 53.7245C41.3687 54.2077 41.3211 54.4832 41.6681 55.4665C42.0117 56.4531 43.0188 57.2526 43.3181 57.6337C43.6175 58.0147 43.1106 58.4604 43.2399 59.2599C43.3692 60.0594 43.3284 62.1824 44.0938 63.3766C44.8593 64.5707 45.3186 64.4312 45.2574 63.6249C45.1961 62.8186 44.9342 62.0599 45.4003 61.4543C45.8664 60.8487 46.8122 61.012 47.132 59.9063C47.4518 58.804 47.6593 58.855 48.1697 58.4774C48.68 58.0998 48.452 57.78 48.9284 56.926C49.4047 56.0721 49.5441 55.2691 48.8399 54.9153C48.139 54.5649 47.6695 54.5989 47.0674 53.7688C46.4652 52.9386 45.5262 52.1323 44.6518 51.6594C43.7808 51.1865 42.3962 51.7649 41.8416 51.6016C41.2904 51.4417 40.94 50.3904 40.974 49.9821C41.0115 49.5739 40.5998 49.4718 40.2017 49.5705C39.8037 49.6691 39.5825 49.414 39.4737 48.8832C39.3648 48.3525 40.1915 47.6823 40.8618 47.6278C41.532 47.5768 41.8926 47.8864 42.0253 48.754C42.158 49.6215 42.733 50.0502 43.3522 50.2033C43.9714 50.3598 43.5835 49.7134 43.1446 49.2745C42.7058 48.8356 42.6751 48.4341 43.0051 47.4645C43.3352 46.4949 44.1517 46.5663 44.7573 45.675C45.3629 44.7802 45.4819 45.4538 46.0943 45.5423C46.7067 45.6307 46.6149 45.3007 46.8428 44.7428C47.0708 44.1882 47.8499 44.6645 48.4895 44.212C49.1291 43.7595 47.792 43.0519 47.8805 42.4361C47.9689 41.8237 48.5779 41.8441 48.2377 40.9255C47.8975 40.0069 48.367 39.9695 48.6085 39.6293C48.8637 39.2993 48.435 38.9659 47.6559 39.3809ZM46.751 41.6264C46.5502 42.0823 46.3733 41.9938 46.0433 42.4905C45.7099 42.9906 45.1927 43.2628 44.8559 43.307C44.5225 43.3479 43.968 42.7525 43.9407 42.3851C43.9135 42.0176 44.4443 41.9088 45.0465 41.8305C45.6486 41.7488 46.1624 41.4903 46.7067 41.0616C47.1388 40.718 46.9517 41.1739 46.751 41.6264Z" fill="#3A52AA"/>
<path d="M66.9529 50.8598L66.9563 50.9006C66.7181 51.0027 66.4868 51.1796 66.3609 51.4892C66.0207 52.3262 65.956 51.9587 65.1565 52.5269C64.357 53.0951 64.6598 53.5407 64.704 54.1123C64.7483 54.6839 63.8195 55.3269 63.3602 55.531C62.9043 55.7352 62.7001 57.0314 62.8498 57.6642C62.9995 58.2936 62.2442 58.5522 61.7816 59.1271C61.3189 59.7021 61.0569 60.6649 60.7541 61.1276C60.4547 61.5903 59.9001 61.8659 59.3558 61.774C58.808 61.6788 58.3011 60.7738 58.0051 59.9879C57.7091 59.202 57.6071 58.331 57.7772 57.4737C57.9473 56.6197 57.8894 56.7252 57.6853 55.3915C57.4812 54.0579 56.5422 53.6564 56.0251 53.5305C55.5079 53.4013 54.6574 53.7006 54.1947 53.4353C53.7388 53.1665 53.5381 52.7787 53.2387 51.5199C52.9393 50.261 53.5585 49.9787 54.0484 49.2982C54.5349 48.6178 55.4909 47.9067 56.3517 47.672C57.209 47.4372 57.801 47.6618 58.3249 47.9271C58.8523 48.1891 59.0972 48.7777 59.4749 48.8185C59.8491 48.8559 60.1723 48.6654 60.5466 48.7369C60.9208 48.8083 61.1726 48.992 61.54 48.9308C61.9074 48.8695 61.6727 48.4477 61.6216 48.2163C61.5706 47.985 61.2372 48.0428 60.7983 48.0394C60.3594 48.0394 60.2472 47.9169 60.0941 47.6243C59.9376 47.3318 59.6858 47.5903 59.4749 47.4678C59.2639 47.3488 59.3048 47.8863 59.2878 48.0938C59.2707 48.3014 59.1074 47.9339 59.1074 47.9339C59.1074 47.9339 58.9271 48.2163 58.8489 48.087C58.774 47.9578 58.9509 47.6414 58.9271 47.3216C58.9033 47.0017 58.4372 47.0766 58.148 46.8282C57.8588 46.5799 57.454 46.5459 57.0559 46.6785C56.6613 46.8112 56.5864 46.716 56.4129 47.063C56.236 47.4134 55.3786 47.6482 55.1031 47.6039C54.8309 47.5563 55.0214 47.0017 55.2562 46.5118C55.4875 46.0219 55.9706 46.1852 56.2734 45.6919C56.5728 45.1986 56.1645 45.1271 55.8856 45.0489C55.61 44.9672 55.5215 44.7053 55.8107 44.0759C56.0999 43.4465 56.4843 43.62 56.6408 43.9126C56.7973 44.2051 57.1444 44.348 57.5186 44.3514C57.8894 44.3582 57.801 44.0963 57.7942 43.5553C57.7874 43.0144 58.0357 42.7286 58.5257 42.5211C59.0156 42.3135 59.8355 41.9801 60.1485 41.6875C60.4615 41.3915 61.0161 41.5855 61.312 41.9019C61.608 42.2149 62.2545 42.3339 62.9417 42.4496C63.1356 42.4836 63.2921 42.4054 63.4248 42.2897C65.4083 44.6134 66.7011 47.5733 66.9529 50.8598Z" fill="#3A52AA"/>
<path d="M64.1426 58.2383C63.7785 58.1771 63.8091 58.2962 63.5948 58.5854C63.3804 58.8712 63.0673 59.1979 63.1252 59.4973C63.183 59.7968 63.2102 60.1643 63.462 59.9431C63.7139 59.7219 63.6288 59.4565 63.9861 59.2966C64.3468 59.1332 64.6905 58.3302 64.1426 58.2383Z" fill="#3A52AA"/>
<path opacity="0.4" d="M55.9062 38.7097C46.3563 35.9539 44.5735 42.4623 49.6326 46.5654C54.6951 50.6684 63.3706 52.0191 64.5376 49.3143C65.7079 46.6096 63.0066 40.7578 55.9062 38.7097Z" fill="white"/>
<path opacity="0.15" d="M47.9346 59.5115C40.5144 53.4216 40.7424 41.599 47.2508 37.7783C46.9752 37.8702 46.703 37.9688 46.4274 38.0777C38.7385 41.1567 34.9995 49.8867 38.0785 57.5723C39.259 60.5219 41.2697 62.8899 43.7397 64.5127C47.6964 67.1222 52.8337 67.8128 57.5696 65.9178C61.4549 64.363 64.3298 61.3657 65.8267 57.7866C63.7344 60.6989 55.3514 65.598 47.9346 59.5115Z" fill="#344593"/>
<path opacity="0.3" d="M53.9338 14.1769C53.383 14.496 52.7423 14.6094 52.0312 14.5881C52.0195 14.5881 52.0117 14.5881 52 14.5881C52.0078 14.5881 52.0195 14.5881 52.0274 14.5881V102C52.4493 102 52.879 101.894 53.2971 101.653L80.2577 87.5288C80.7578 87.2771 81 87.0574 81 86.7489V0L53.9338 14.1769Z" fill="url(#paint8_linear)"/>
<path opacity="0.3" d="M51.9687 14.7276C51.8045 14.7312 51.6441 14.724 51.4877 14.7097C51.476 14.7097 51.4682 14.7061 51.4564 14.7061C51.3 14.6918 51.1475 14.6667 51.0028 14.6381C50.9051 14.6166 50.8112 14.5844 50.7174 14.5593C50.6587 14.5414 50.5961 14.5307 50.5414 14.5092C50.3928 14.4555 50.2442 14.3947 50.1034 14.3231L23 0V87.5994C23.0117 87.8822 23.2073 88.1006 23.524 88.2688L50.733 102.649C51.1749 102.918 51.5542 102.989 51.9648 102.996C51.9765 102.996 51.9883 103 52 103V14.7276C51.9844 14.7276 51.9765 14.7276 51.9687 14.7276Z" fill="url(#paint9_linear)"/>
<defs>
<linearGradient id="paint0_linear" x1="23.1029" y1="99.008" x2="29.7648" y2="99.008" gradientUnits="userSpaceOnUse">
<stop stop-color="#C8E2FF"/>
<stop offset="0.1783" stop-color="#C2DEFC"/>
<stop offset="0.4099" stop-color="#B2D1F4"/>
<stop offset="0.671" stop-color="#97BCE7"/>
<stop offset="0.9518" stop-color="#729FD5"/>
<stop offset="1" stop-color="#6B99D1"/>
</linearGradient>
<linearGradient id="paint1_linear" x1="28.6851" y1="102.246" x2="35.347" y2="102.246" gradientUnits="userSpaceOnUse">
<stop stop-color="#C8E2FF"/>
<stop offset="0.1783" stop-color="#C2DEFC"/>
<stop offset="0.4099" stop-color="#B2D1F4"/>
<stop offset="0.671" stop-color="#97BCE7"/>
<stop offset="0.9518" stop-color="#729FD5"/>
<stop offset="1" stop-color="#6B99D1"/>
</linearGradient>
<linearGradient id="paint2_linear" x1="34.2666" y1="105.482" x2="40.9281" y2="105.482" gradientUnits="userSpaceOnUse">
<stop stop-color="#C8E2FF"/>
<stop offset="0.1783" stop-color="#C2DEFC"/>
<stop offset="0.4099" stop-color="#B2D1F4"/>
<stop offset="0.671" stop-color="#97BCE7"/>
<stop offset="0.9518" stop-color="#729FD5"/>
<stop offset="1" stop-color="#6B99D1"/>
</linearGradient>
<linearGradient id="paint3_linear" x1="39.8486" y1="108.72" x2="46.5103" y2="108.72" gradientUnits="userSpaceOnUse">
<stop stop-color="#C8E2FF"/>
<stop offset="0.1783" stop-color="#C2DEFC"/>
<stop offset="0.4099" stop-color="#B2D1F4"/>
<stop offset="0.671" stop-color="#97BCE7"/>
<stop offset="0.9518" stop-color="#729FD5"/>
<stop offset="1" stop-color="#6B99D1"/>
</linearGradient>
<linearGradient id="paint4_linear" x1="81.1173" y1="99.008" x2="74.4557" y2="99.008" gradientUnits="userSpaceOnUse">
<stop stop-color="#C8E2FF"/>
<stop offset="0.1783" stop-color="#C2DEFC"/>
<stop offset="0.4099" stop-color="#B2D1F4"/>
<stop offset="0.671" stop-color="#97BCE7"/>
<stop offset="0.9518" stop-color="#729FD5"/>
<stop offset="1" stop-color="#6B99D1"/>
</linearGradient>
<linearGradient id="paint5_linear" x1="75.5358" y1="102.247" x2="68.8742" y2="102.247" gradientUnits="userSpaceOnUse">
<stop stop-color="#C8E2FF"/>
<stop offset="0.1783" stop-color="#C2DEFC"/>
<stop offset="0.4099" stop-color="#B2D1F4"/>
<stop offset="0.671" stop-color="#97BCE7"/>
<stop offset="0.9518" stop-color="#729FD5"/>
<stop offset="1" stop-color="#6B99D1"/>
</linearGradient>
<linearGradient id="paint6_linear" x1="69.9544" y1="105.482" x2="63.2928" y2="105.482" gradientUnits="userSpaceOnUse">
<stop stop-color="#C8E2FF"/>
<stop offset="0.1783" stop-color="#C2DEFC"/>
<stop offset="0.4099" stop-color="#B2D1F4"/>
<stop offset="0.671" stop-color="#97BCE7"/>
<stop offset="0.9518" stop-color="#729FD5"/>
<stop offset="1" stop-color="#6B99D1"/>
</linearGradient>
<linearGradient id="paint7_linear" x1="64.3727" y1="108.72" x2="57.7106" y2="108.72" gradientUnits="userSpaceOnUse">
<stop stop-color="#C8E2FF"/>
<stop offset="0.1783" stop-color="#C2DEFC"/>
<stop offset="0.4099" stop-color="#B2D1F4"/>
<stop offset="0.671" stop-color="#97BCE7"/>
<stop offset="0.9518" stop-color="#729FD5"/>
<stop offset="1" stop-color="#6B99D1"/>
</linearGradient>
<linearGradient id="paint8_linear" x1="83.205" y1="83.1196" x2="52.8905" y2="34.2367" gradientUnits="userSpaceOnUse">
<stop stop-color="#1FC1A7"/>
<stop offset="1" stop-color="#1FC1A7" stop-opacity="0"/>
</linearGradient>
<linearGradient id="paint9_linear" x1="54.205" y1="83.9345" x2="23.4615" y2="34.841" gradientUnits="userSpaceOnUse">
<stop stop-color="#1FC1A7"/>
<stop offset="1" stop-color="#1FC1A7" stop-opacity="0"/>
</linearGradient>
</defs>
</svg>
