<svg width="151" height="28" viewBox="0 0 151 28" fill="none" xmlns="http://www.w3.org/2000/svg">
    <path d="M12.1203 0C5.71427 0 0.795898 4.73942 0.795898 11.0379C0.795898 17.3051 5.71427 22.1381 12.1203 22.1381C18.5263 22.1381 23.4447 17.3051 23.4447 11.0379C23.4447 4.7706 18.5263 0 12.1203 0ZM12.181 3.74165C16.0671 3.74165 19.2853 6.92205 19.2853 11.0379C19.2853 15.1537 16.0671 18.3964 12.181 18.3964C8.26453 18.3964 4.95526 15.1537 4.95526 11.0379C4.95526 6.92205 8.23417 3.74165 12.181 3.74165Z" fill="white"/>
    <path d="M36.4265 5.14477C34.605 5.14477 33.0909 5.7235 31.9609 6.78889C31.6237 7.10682 30.9617 6.88153 30.9617 6.41142V5.74073C30.9617 5.48047 30.7563 5.26949 30.5028 5.26949H27.4737C27.2203 5.26949 27.0149 5.48047 27.0149 5.74073V27.5288C27.0149 27.789 27.2203 28 27.4737 28H30.5028C30.7563 28 30.9617 27.789 30.9617 27.5288V20.8058C30.9617 20.3386 31.611 20.1152 31.9457 20.4316C33.0936 21.5169 34.6251 22.1069 36.4873 22.1069C41.102 22.1069 44.1077 18.7082 44.1077 13.6882C44.1077 8.57461 41.011 5.14477 36.4265 5.14477ZM35.5461 18.6147C32.844 18.6147 30.9617 16.5568 30.9617 13.5635C30.9617 10.6325 32.844 8.54343 35.5461 8.54343C38.2178 8.54343 40.1001 10.6325 40.1001 13.5635C40.1001 16.5256 38.2178 18.6147 35.5461 18.6147Z" fill="white"/>
    <path d="M54.2986 5.14477C49.4409 5.14477 46.0406 8.57461 46.0406 13.657C46.0406 18.6771 49.3498 22.1069 54.3896 22.1069C57.0721 22.1069 59.3255 21.1703 60.9227 19.5559C61.0949 19.3818 61.0907 19.0991 60.9234 18.9199L59.424 17.314C59.2444 17.1216 58.9463 17.1219 58.7514 17.2978C57.6424 18.2982 56.2326 18.833 54.7236 18.833C52.5509 18.833 50.8893 17.6256 50.2313 15.5961C50.1385 15.3098 50.3575 15.029 50.6513 15.029H61.6417C61.8832 15.029 62.0841 14.8355 62.0947 14.5877C62.3428 8.79407 59.8662 5.14477 54.2986 5.14477ZM50.5212 12.3163C50.2403 12.3163 50.0239 12.0583 50.0905 11.7781C50.6013 9.62813 52.1663 8.29399 54.3289 8.29399C56.6215 8.29399 58.1753 9.64892 58.4491 11.8283C58.4824 12.0933 58.2719 12.3163 58.0117 12.3163H50.5212Z" fill="white"/>
    <path d="M75.2713 5.11359C73.324 5.13657 71.7067 5.70191 70.5289 6.88457C70.1876 7.22728 69.4422 6.99861 69.4422 6.5084V5.74073C69.4422 5.48047 69.2367 5.26949 68.9833 5.26949H65.9542C65.7008 5.26949 65.4953 5.48047 65.4953 5.74073V21.4798C65.4953 21.74 65.7008 21.951 65.9542 21.951H68.9833C69.2367 21.951 69.4422 21.74 69.4422 21.4798V13.7506C69.4422 11.0067 71.0209 8.97996 73.6926 8.94878C75.9393 8.94878 77.3055 10.3831 77.3055 12.7216V21.4798C77.3055 21.74 77.5109 21.951 77.7643 21.951H80.8238C81.0773 21.951 81.2827 21.74 81.2827 21.4798V11.5367C81.2827 7.57684 79.0057 5.11359 75.2713 5.11359Z" fill="white"/>
    <path d="M94.7024 0.124722H86.3264C86.073 0.124722 85.8676 0.335703 85.8676 0.595962V21.4798C85.8676 21.74 86.073 21.951 86.3264 21.951H94.5506C101.108 21.951 105.784 17.3987 105.784 11.0379C105.784 4.64588 101.139 0.124722 94.7024 0.124722ZM94.7935 18.2717H90.3947C90.1413 18.2717 89.9358 18.0607 89.9358 17.8005V4.27525C89.9358 4.01499 90.1413 3.80401 90.3947 3.80401H94.6417C98.6189 3.80401 101.625 6.79733 101.625 11.069C101.625 15.3096 98.71 18.2717 94.7935 18.2717Z" fill="white"/>
    <path d="M124.424 21.6618C124.496 21.837 124.663 21.951 124.848 21.951H128.216C128.546 21.951 128.768 21.6037 128.637 21.2926L119.835 0.408767C119.762 0.236337 119.597 0.124722 119.414 0.124722H115.795C115.613 0.124722 115.448 0.235375 115.375 0.406692L106.456 21.2905C106.323 21.6019 106.546 21.951 106.877 21.951H110.089C110.274 21.951 110.441 21.837 110.512 21.6618L112.159 17.6255C112.23 17.4503 112.397 17.3363 112.582 17.3363H122.355C122.54 17.3363 122.706 17.4503 122.778 17.6255L124.424 21.6618ZM114.426 13.7506C114.097 13.7506 113.875 13.4068 114.003 13.0962L117.072 5.62137C117.231 5.23602 117.763 5.2376 117.919 5.62389L120.939 13.0987C121.065 13.409 120.843 13.7506 120.515 13.7506H114.426Z" fill="white"/>
    <path d="M144.718 21.7526C144.804 21.8771 144.944 21.951 145.092 21.951H148.851C149.224 21.951 149.441 21.5174 149.224 21.2055L134.67 0.321698C134.584 0.19807 134.445 0.124722 134.297 0.124722H130.655C130.282 0.124722 130.065 0.556742 130.281 0.868773L144.718 21.7526Z" fill="white"/>
    <path d="M129.798 21.2054C129.581 21.5173 129.798 21.9505 130.172 21.9505H133.808C133.958 21.9505 134.098 21.8757 134.184 21.7502L148.446 0.901319C148.659 0.589065 148.442 0.15918 148.07 0.15918H144.668C144.52 0.15918 144.381 0.232696 144.295 0.356562L129.798 21.2054Z" fill="#1FC1A7"/>
    <path d="M150.565 3.47024C150.892 4.08395 150.634 4.24131 150.363 4.24131H147.199C146.938 4.24131 146.544 4.16154 146.368 3.85577L144.468 0.928296C144.178 0.448345 144.257 0.157227 144.715 0.157227H147.977C148.267 0.157227 148.506 0.290983 148.655 0.542761L150.565 3.47024Z" fill="white"/>
    <path d="M144.718 21.7851C144.804 21.9096 144.944 21.9835 145.092 21.9835H148.851C149.224 21.9835 149.441 21.5499 149.224 21.238L134.67 0.354203C134.584 0.230574 134.445 0.157227 134.297 0.157227H130.655C130.282 0.157227 130.065 0.589246 130.281 0.901278L144.718 21.7851Z" fill="white"/>
</svg>