<?xml version="1.0" standalone="no"?>
<!DOCTYPE svg PUBLIC "-//W3C//DTD SVG 20010904//EN"
 "http://www.w3.org/TR/2001/REC-SVG-20010904/DTD/svg10.dtd">
<svg version="1.0" xmlns="http://www.w3.org/2000/svg"
 width="498.000000pt" height="233.000000pt" viewBox="0 0 498.000000 233.000000"
 preserveAspectRatio="xMidYMid meet">

<g transform="translate(0.000000,233.000000) scale(0.100000,-0.100000)"
fill="#000000" stroke="none">
<path d="M110 1290 l0 -960 890 0 890 0 0 35 0 35 -850 0 -850 0 0 890 0 890
2300 0 2300 0 0 -890 0 -890 -855 0 -855 0 0 -35 0 -35 890 0 890 0 0 960 0
960 -2375 0 -2375 0 0 -960z"/>
<path d="M3100 1585 c0 -35 0 -35 45 -35 45 0 45 0 45 35 0 35 0 35 -45 35
-45 0 -45 0 -45 -35z"/>
<path d="M916 1568 c-3 -7 -32 -100 -66 -206 -33 -106 -63 -199 -66 -207 -5
-12 4 -15 44 -15 l50 0 12 50 12 51 76 -3 75 -3 14 -47 14 -48 49 0 48 0 -72
218 -73 217 -56 3 c-40 2 -58 -1 -61 -10z m88 -155 l25 -93 -53 0 -53 0 26
100 c14 55 27 97 28 92 1 -4 13 -49 27 -99z"/>
<path d="M2550 1360 l0 -220 108 1 c59 0 125 6 147 13 86 26 111 130 45 189
-16 15 -40 27 -53 27 -20 0 -19 2 7 15 41 21 55 44 56 86 0 47 -30 85 -78 99
-20 5 -81 10 -134 10 l-98 0 0 -220z m198 138 c7 -7 12 -24 12 -38 0 -37 -18
-50 -67 -50 -45 0 -45 -1 -45 60 0 17 1 32 1 35 2 10 88 4 99 -7z m29 -184
c18 -25 16 -64 -4 -86 -12 -13 -30 -18 -70 -18 -29 0 -53 5 -54 10 0 6 -1 24
-1 40 0 89 -4 83 59 77 38 -4 62 -12 70 -23z"/>
<path d="M3490 1535 c-11 -40 -16 -45 -41 -45 -26 0 -29 -4 -29 -30 0 -25 4
-30 25 -30 l25 0 0 -114 c0 -106 2 -117 24 -142 20 -24 32 -28 89 -32 90 -6
117 2 117 33 0 24 -3 25 -60 25 -75 0 -80 8 -80 134 l0 96 60 0 60 0 0 30 0
30 -60 0 -60 0 0 45 c0 43 -1 45 -29 45 -25 0 -30 -5 -41 -45z"/>
<path d="M3810 1576 c0 -2 29 -47 65 -99 36 -52 65 -99 65 -104 0 -4 -33 -59
-74 -120 l-73 -113 51 0 51 0 50 79 50 79 21 -32 c11 -17 32 -51 46 -76 24
-43 26 -45 76 -48 l52 -3 -70 110 c-38 61 -70 115 -70 120 0 15 36 77 86 149
l43 62 -49 0 -48 0 -44 -69 -43 -70 -43 70 -43 69 -50 0 c-27 0 -49 -2 -49 -4z"/>
<path d="M1374 1464 l-34 -35 0 30 c0 30 -1 31 -45 31 l-45 0 0 -175 0 -175
49 0 49 0 4 131 c3 116 5 132 22 145 29 20 73 18 86 -5 5 -11 10 -76 10 -145
l0 -126 50 0 50 0 0 123 c0 67 -5 139 -10 159 -15 51 -52 78 -108 78 -38 0
-49 -5 -78 -36z"/>
<path d="M1750 1482 c-43 -21 -64 -62 -56 -107 9 -46 42 -69 126 -90 72 -18
94 -33 88 -61 -7 -39 -110 -41 -139 -2 -13 17 -22 20 -53 14 -41 -8 -43 -12
-20 -45 24 -33 74 -51 141 -50 79 1 124 19 147 58 16 28 17 38 7 71 -13 43
-39 63 -102 80 -98 25 -109 31 -109 55 0 26 17 35 66 35 23 0 38 -6 46 -20 9
-14 24 -20 49 -20 46 0 51 6 34 40 -29 57 -151 80 -225 42z"/>
<path d="M2180 1482 c-99 -52 -110 -248 -17 -316 36 -26 155 -30 201 -6 44 23
71 83 71 160 0 80 -26 135 -75 162 -46 24 -134 24 -180 0z m131 -61 c22 -17
24 -27 24 -99 0 -94 -16 -122 -71 -122 -49 0 -64 28 -64 118 0 64 3 76 25 97
29 30 55 32 86 6z"/>
<path d="M3010 1460 c0 -29 2 -30 45 -30 l45 0 0 -115 0 -115 -65 0 -65 0 0
-30 0 -30 170 0 170 0 0 30 0 30 -60 0 -60 0 0 145 0 145 -90 0 -90 0 0 -30z"/>
<path d="M2258 665 c-167 -61 -253 -243 -195 -412 24 -69 93 -145 165 -180 57
-28 58 -28 262 -28 205 0 205 0 258 28 65 34 123 93 154 155 33 67 33 208 0
270 -36 67 -88 119 -154 152 l-61 30 -196 -1 c-140 0 -207 -4 -233 -14z m229
-46 c100 -49 172 -175 160 -281 -13 -105 -66 -181 -159 -227 -258 -129 -521
169 -360 407 33 50 98 100 155 118 55 18 148 10 204 -17z m131 -5 c230 -114
183 -476 -68 -529 l-35 -7 41 30 c110 81 154 227 109 361 -13 39 -34 71 -74
113 -63 64 -56 73 27 32z m128 -4 c97 -55 148 -142 147 -250 -1 -111 -63 -207
-168 -256 -67 -32 -86 -30 -42 3 19 16 52 55 71 87 83 139 66 282 -48 400 -54
55 -38 61 40 16z"/>
<path d="M2340 540 c0 -12 -12 -26 -30 -35 -36 -18 -53 -57 -45 -95 6 -28 35
-45 118 -70 41 -13 56 -44 37 -79 -8 -17 -20 -21 -56 -21 -39 0 -47 4 -62 30
-19 33 -42 40 -42 12 0 -25 28 -62 56 -72 13 -5 24 -16 24 -25 0 -8 9 -15 20
-15 11 0 20 6 20 14 0 7 14 19 30 26 87 36 75 150 -18 165 -78 13 -105 41 -82
85 16 30 91 25 105 -7 8 -20 45 -34 45 -18 0 20 -33 63 -54 73 -16 7 -26 20
-26 32 0 13 -7 20 -20 20 -13 0 -20 -7 -20 -20z"/>
</g>
</svg>
