<?xml version="1.0" standalone="no"?>
<!DOCTYPE svg PUBLIC "-//W3C//DTD SVG 20010904//EN"
 "http://www.w3.org/TR/2001/REC-SVG-20010904/DTD/svg10.dtd">
<svg version="1.0" xmlns="http://www.w3.org/2000/svg"
 width="498.000000pt" height="236.000000pt" viewBox="0 0 498.000000 236.000000"
 preserveAspectRatio="xMidYMid meet">

<g transform="translate(0.000000,236.000000) scale(0.100000,-0.100000)"
fill="#000000" stroke="none">
<path d="M0 1180 l0 -1180 2490 0 2490 0 0 1180 0 1180 -2490 0 -2490 0 0
-1180z m4900 120 l0 -980 -905 0 -905 0 0 40 0 40 870 0 870 0 0 905 0 905
-2350 0 -2350 0 0 -905 0 -905 870 0 870 0 0 -40 0 -40 -905 0 -905 0 0 980 0
980 2420 0 2420 0 0 -980z m-1700 315 c0 -35 0 -35 -45 -35 -45 0 -45 0 -45
35 0 35 0 35 45 35 45 0 45 0 45 -35z m380 -55 l0 -50 60 0 60 0 0 -35 0 -35
-60 0 -60 0 0 -104 c0 -125 5 -131 85 -123 55 6 55 6 55 -23 0 -34 -13 -40
-95 -40 -123 0 -145 28 -145 184 l0 106 -25 0 c-22 0 -25 4 -25 35 0 32 2 35
29 35 25 0 31 5 41 38 6 20 13 43 15 50 3 6 18 12 35 12 29 0 30 -1 30 -50z
m-2584 28 c9 -14 144 -419 144 -430 0 -5 -22 -8 -48 -8 l-49 0 -13 55 -13 55
-78 0 -78 0 -16 -55 -16 -55 -48 0 -49 0 68 209 c37 115 70 216 73 225 8 20
111 23 123 4z m1835 -26 c41 -46 41 -102 -1 -144 -34 -34 -36 -38 -16 -38 8 0
27 -10 41 -22 53 -47 38 -150 -27 -185 -25 -13 -63 -18 -160 -21 l-128 -4 0
227 0 227 131 -4 131 -3 29 -33z m1118 6 c11 -18 32 -50 47 -71 l27 -39 41 71
41 71 49 0 c58 0 59 3 -25 -121 l-61 -91 64 -96 c100 -150 98 -142 39 -142
l-49 0 -49 80 c-26 44 -50 79 -53 80 -3 0 -27 -36 -55 -80 l-50 -80 -52 0 -53
0 75 115 c41 64 75 118 75 121 0 3 -24 43 -54 89 -87 133 -85 125 -26 125 46
0 52 -3 69 -32z m-2461 -68 c18 -11 37 -32 42 -46 6 -14 10 -88 10 -165 l0
-139 -50 0 -50 0 0 133 c0 122 -2 136 -20 152 -16 15 -26 17 -48 9 -46 -16
-62 -64 -62 -186 l0 -108 -45 0 -45 0 0 180 0 180 45 0 c44 0 45 -1 45 -32 l0
-32 16 23 c19 26 67 50 104 51 14 0 40 -9 58 -20z m431 -8 c14 -10 31 -30 38
-43 12 -23 11 -24 -25 -32 -31 -6 -39 -4 -52 13 -31 41 -142 22 -125 -22 4 -9
39 -24 89 -37 100 -27 131 -52 131 -111 0 -27 -8 -46 -24 -64 -36 -38 -73 -49
-157 -44 -73 3 -77 5 -110 41 -40 43 -43 57 -11 57 12 0 32 3 45 6 16 5 22 2
22 -9 0 -22 31 -37 77 -37 47 0 77 19 72 46 -4 19 -14 23 -128 54 -61 16 -91
49 -91 98 0 75 60 115 164 108 37 -3 69 -11 85 -24z m421 6 c63 -32 85 -75 85
-163 0 -122 -58 -185 -170 -185 -72 0 -116 24 -149 80 -31 51 -29 162 3 213
46 74 146 98 231 55z m860 -133 l0 -144 58 -3 c56 -3 57 -3 60 -35 l3 -33
-175 0 -176 0 0 35 0 35 70 0 70 0 0 110 0 110 -50 0 -50 0 0 35 0 35 95 0 95
0 0 -145z m-455 -713 c65 -31 121 -86 157 -154 19 -36 23 -58 23 -138 0 -80
-4 -102 -23 -138 -34 -63 -89 -120 -146 -150 -51 -27 -51 -27 -276 -27 -217 0
-227 1 -270 24 -61 32 -116 86 -148 146 -24 44 -27 61 -27 145 0 80 4 102 23
138 45 85 118 147 202 173 14 4 115 8 225 8 200 1 200 1 260 -27z"/>
<path d="M911 1443 c-13 -49 -25 -94 -28 -100 -3 -10 11 -13 51 -13 31 0 56 1
56 3 0 1 -13 46 -28 100 l-27 97 -24 -87z"/>
<path d="M2640 1470 l0 -50 43 0 c59 0 79 17 75 60 l-3 35 -57 3 -58 3 0 -51z"/>
<path d="M2640 1290 l0 -60 65 0 c70 0 85 11 85 64 0 36 -35 56 -97 56 l-53 0
0 -60z"/>
<path d="M2205 1430 c-23 -26 -31 -115 -15 -165 22 -67 99 -74 126 -10 25 60
14 166 -19 187 -23 15 -74 8 -92 -12z"/>
<path d="M2278 636 c-129 -36 -211 -142 -211 -276 0 -202 193 -334 390 -266
61 20 129 81 158 141 26 55 32 160 11 223 -45 134 -207 218 -348 178z m92 -96
c0 -12 10 -25 26 -32 21 -10 54 -53 54 -73 0 -16 -37 -2 -45 18 -20 44 -115
29 -115 -19 0 -24 36 -52 78 -59 88 -15 120 -89 63 -146 -16 -16 -37 -29 -45
-29 -9 0 -16 -8 -16 -20 0 -13 -7 -20 -20 -20 -13 0 -20 7 -20 19 0 12 -9 21
-25 25 -25 6 -48 34 -60 74 -5 18 -2 22 14 22 12 0 21 -6 21 -13 0 -7 9 -23
20 -35 40 -42 124 -16 118 36 -3 28 -15 36 -103 69 -40 15 -51 24 -58 50 -12
39 8 83 46 101 16 8 27 21 27 33 0 12 7 19 20 19 13 0 20 -7 20 -20z"/>
<path d="M2573 600 c26 -23 58 -66 74 -98 24 -49 28 -69 28 -142 0 -105 -22
-158 -94 -230 -54 -54 -47 -62 24 -29 92 44 165 157 165 259 0 104 -71 215
-165 259 -71 33 -83 26 -32 -19z"/>
<path d="M2683 613 c82 -63 121 -145 121 -253 -1 -109 -44 -196 -127 -257 -26
-19 -28 -23 -11 -23 34 0 121 49 155 88 97 111 97 273 0 384 -33 38 -121 88
-155 88 -16 0 -12 -6 17 -27z"/>
</g>
</svg>
