<svg width="106" height="137" viewBox="0 0 106 137" fill="none" xmlns="http://www.w3.org/2000/svg">
<path opacity="0.15" d="M104.117 107.901L55.284 136.098C54.5455 136.528 53.5814 136.733 52.6172 136.733C51.6531 136.733 50.6889 136.528 49.9504 136.098L1.11751 107.901C0.379015 107.481 0.00976562 106.927 0.00976562 106.363C0.00976562 105.963 0.204654 105.553 0.594414 105.204C0.73801 105.071 0.912372 104.937 1.11751 104.824L49.9504 76.6385C51.4172 75.7872 53.807 75.7872 55.284 76.6385L104.117 104.824C105.584 105.676 105.584 107.06 104.117 107.901Z" fill="#2F59BD"/>
<path d="M104.117 104.375L55.284 132.56C54.5455 132.991 53.5814 133.196 52.6172 133.196C51.6531 133.196 50.6992 132.991 49.9607 132.571L1.11751 104.375C0.379015 103.944 0.00976562 103.39 0.00976562 102.836C0.00976562 102.272 0.379015 101.718 1.11751 101.298L8.8717 96.8255L49.9504 73.1014C51.4172 72.2501 53.807 72.2501 55.284 73.1014L104.117 101.298C105.584 102.139 105.584 103.523 104.117 104.375Z" fill="#DCEEFF"/>
<path d="M52.6172 122.077V133.195C51.6531 133.195 50.6992 132.99 49.9607 132.57L1.11751 104.374C0.379015 103.943 0.00976562 103.389 0.00976562 102.835V93.204C0.00976562 92.8039 0.204654 92.3937 0.594414 92.0449L8.8717 96.8246L52.6172 122.077Z" fill="#A5CBFA"/>
<path d="M52.6177 122.077V133.195C53.5818 133.195 54.5357 132.99 55.2742 132.57L104.117 104.374C104.856 103.943 105.225 103.389 105.225 102.835V93.204C105.225 92.8039 105.03 92.3937 104.64 92.0449L96.3632 96.8246L52.6177 122.077Z" fill="#C8E2FF"/>
<path d="M104.117 94.7432L55.284 122.939C54.5455 123.37 53.5814 123.575 52.6172 123.575C51.6531 123.575 50.6889 123.37 49.9504 122.939L1.11751 94.7432C0.379015 94.3227 0.00976562 93.7688 0.00976562 93.2047C0.00976562 92.8047 0.204654 92.3944 0.594414 92.0457C0.73801 91.9123 0.912372 91.779 1.11751 91.6662L49.9504 63.4803C51.4172 62.629 53.807 62.629 55.284 63.4803L104.117 91.6662C105.584 92.5175 105.584 93.9021 104.117 94.7432Z" fill="#DCEEFF"/>
<path d="M52.6074 63.8704C53.428 63.8704 54.2178 64.055 54.7614 64.373L103.594 92.5589C104.025 92.8153 104.189 93.0717 104.179 93.2153C104.179 93.3589 104.025 93.6153 103.594 93.8615L54.7614 122.058C54.2178 122.376 53.4383 122.55 52.6074 122.55C51.7766 122.55 50.9971 122.365 50.4535 122.047L1.61032 93.8512C1.25133 93.6461 1.01542 93.3999 1.01542 93.205C1.01542 93.0922 1.10773 92.9486 1.27184 92.7948C1.37441 92.7025 1.47698 92.6204 1.61032 92.5486L50.4432 64.3627C51.0074 64.0448 51.7972 63.8704 52.6074 63.8704ZM52.6074 62.8447C51.6433 62.8447 50.6792 63.0601 49.9407 63.4807L1.10774 91.6665C0.902606 91.7793 0.728229 91.9127 0.584633 92.046C0.194872 92.3948 0 92.805 0 93.205C0 93.7692 0.369249 94.323 1.10774 94.7436L49.9509 122.94C50.6894 123.37 51.6536 123.576 52.6177 123.576C53.5819 123.576 54.546 123.37 55.2845 122.94L104.117 94.7436C105.584 93.9025 105.584 92.5178 104.117 91.6665L55.2845 63.4807C54.546 63.0499 53.5716 62.8447 52.6074 62.8447Z" fill="white"/>
<path d="M50.833 70.178L12.7185 92.179C11.7338 92.7431 11.7338 93.6662 12.7185 94.2303L50.833 116.231C51.8176 116.795 53.4075 116.795 54.3819 116.231L92.4964 94.2303C93.481 93.6662 93.481 92.7431 92.4964 92.179L54.3819 70.178C53.4075 69.6139 51.8176 69.6139 50.833 70.178Z" fill="#0030AE"/>
<path d="M92.4964 92.1783L54.3819 70.1774C53.8895 69.8902 53.2433 69.7568 52.6074 69.7568V71.562L92.1887 94.4143L92.4964 94.24C93.481 93.6656 93.481 92.7527 92.4964 92.1783Z" fill="#1E3779"/>
<path d="M52.6177 69.7568C51.9715 69.7568 51.3356 69.9004 50.8432 70.1774L12.7287 92.1783C11.7441 92.7425 11.7441 93.6656 12.7287 94.2297L13.0364 94.4041L52.6177 71.5518V69.7568Z" fill="#031F60"/>
<path d="M40.1147 81.1825L52.6076 88.3931V49.9093L40.1147 42.6885V81.1825Z" fill="#1FC1A7"/>
<path d="M52.6079 88.3931L65.111 81.1825V42.6885L52.6079 49.9093V88.3931Z" fill="#6CFFE6"/>
<path d="M65.1107 42.6891L52.6076 35.4785L40.1147 42.6891L52.6076 49.9099L65.1107 42.6891Z" fill="#ABFFEF"/>
<path d="M52.6076 88.3939C52.2075 87.9939 52.2076 87.5939 52.2281 87.1939V85.9938L52.2383 83.5834L52.2588 78.773L52.3101 69.152L52.423 59.5311L52.6178 49.9102L52.8127 59.5311L52.9153 69.152L52.9666 78.773L52.9871 83.5834L52.9973 85.9938V87.1939C53.0076 87.5939 53.0076 87.9939 52.6076 88.3939Z" fill="white"/>
<path d="M65.1105 42.688C65.1721 43.0983 65.049 43.1906 64.9156 43.2419L64.5259 43.4675L63.7464 43.9188L62.1771 44.8112C61.1206 45.3958 60.0847 45.9907 59.0179 46.5548C56.905 47.7036 54.7819 48.8421 52.6177 49.8986C54.6178 48.5549 56.6691 47.2831 58.7102 46.0317C59.7257 45.3958 60.7719 44.7906 61.7976 44.165L63.3566 43.2521L64.1361 42.8008L64.5259 42.5752C64.649 42.4931 64.7823 42.4316 65.1105 42.688Z" fill="white"/>
<path d="M60.9458 93.2026L73.4387 100.423L73.4489 66.7501L60.9458 59.5293V93.2026Z" fill="#1FC1A7"/>
<path d="M73.4385 100.423L85.9416 93.2026V59.5293L73.4487 66.7501L73.4385 100.423Z" fill="#43DFC6"/>
<path d="M85.9418 59.5304L73.4387 52.3096L60.9458 59.5304L73.4489 66.7512L85.9418 59.5304Z" fill="#61F8DF"/>
<path d="M73.4386 100.425C73.0386 100.076 73.0386 99.7273 73.0591 99.3683V98.3118L73.0694 96.2092L73.0899 92.0039L73.1412 83.583C73.2027 77.9725 73.2745 72.362 73.4386 66.7412C73.6027 72.3517 73.6745 77.9622 73.7361 83.583L73.7874 92.0039L73.8079 96.2092L73.8181 98.3118V99.3683C73.8386 99.717 73.8489 100.076 73.4386 100.425Z" fill="white"/>
<path d="M85.9416 59.5317C86.0031 59.942 85.88 60.0343 85.7467 60.0856L85.3569 60.3113L84.5774 60.7626L83.0081 61.6549C81.9517 62.2396 80.9157 62.8345 79.849 63.3986C77.7361 64.5473 75.6129 65.6859 73.4487 66.7423C75.4488 65.3987 77.5002 64.1268 79.5413 62.8755C80.5567 62.2396 81.6029 61.6344 82.6286 61.0087L84.1877 60.0959L84.9672 59.6446L85.3569 59.4189C85.48 59.3369 85.6134 59.2753 85.9416 59.5317Z" fill="white"/>
<path d="M19.2725 93.2045L31.7756 100.425V61.9415L19.2725 54.7207V93.2045Z" fill="#1FC1A7"/>
<path d="M31.7754 100.425L44.2785 93.2045L44.2683 54.7207L31.7754 61.9415V100.425Z" fill="#43DFC6"/>
<path d="M44.2694 54.7208L31.7766 47.5L19.2734 54.7208L31.7766 61.9417L44.2694 54.7208Z" fill="#ABFFEF"/>
<path d="M31.776 100.426C31.376 100.026 31.376 99.6261 31.3965 99.2261V98.026L31.4068 95.6157L31.4273 90.8052L31.4786 81.1843L31.5914 71.5633L31.7863 61.9424L31.9812 71.5633L32.0837 81.1843L32.135 90.8052L32.1555 95.6157L32.1658 98.026V99.2261C32.1658 99.6261 32.176 100.026 31.776 100.426Z" fill="white"/>
<path d="M44.2683 54.7222C44.3298 55.1324 44.2067 55.2248 44.0734 55.276L43.6836 55.5017L42.9041 55.953L41.3348 56.8453C40.2783 57.43 39.2424 58.0249 38.1757 58.589C36.0628 59.7378 33.9396 60.8763 31.7754 61.9327C33.7755 60.5891 35.8269 59.3173 37.868 58.0659C38.8834 57.43 39.9296 56.8248 40.9553 56.1992L42.5143 55.2863L43.2938 54.835L43.6836 54.6093C43.8067 54.5273 43.9503 54.4658 44.2683 54.7222Z" fill="white"/>
<path d="M40.1147 105.234L52.6076 112.455L52.6179 83.5817L40.1147 76.3711V105.234Z" fill="#1FC1A7"/>
<path d="M52.6079 112.455L65.111 105.234V76.3711L52.6182 83.5817L52.6079 112.455Z" fill="#43DFC6"/>
<path d="M65.1107 76.3732L52.6076 69.1523L40.1147 76.3732L52.6179 83.5838L65.1107 76.3732Z" fill="#61F8DF"/>
<path d="M52.6076 112.457C52.2075 112.16 52.2076 111.852 52.2281 111.554V110.652L52.2383 108.847L52.2588 105.236C52.2794 102.826 52.2691 100.426 52.3101 98.0154C52.3717 93.2049 52.4435 88.3945 52.6076 83.584C52.7717 88.3945 52.8435 93.2049 52.905 98.0154C52.9461 100.426 52.9358 102.826 52.9563 105.236L52.9768 108.847L52.9871 110.652V111.554C53.0076 111.852 53.0178 112.149 52.6076 112.457Z" fill="white"/>
<path d="M65.1105 76.3724C65.1721 76.7827 65.049 76.875 64.9156 76.9263L64.5259 77.1519L63.7464 77.6032L62.1771 78.4956C61.1206 79.0802 60.0847 79.6751 59.0179 80.2392C56.905 81.388 54.7819 82.5265 52.6177 83.583C54.6178 82.2393 56.6691 80.9675 58.7102 79.7161C59.7257 79.0802 60.7719 78.4751 61.7976 77.8494L63.3566 76.9365L64.1361 76.4852L64.5259 76.2596C64.649 76.1673 64.7823 76.1057 65.1105 76.3724Z" fill="white"/>
<path opacity="0.3" d="M55.2742 21.9087C54.505 22.401 53.6023 22.5754 52.6074 22.5446C52.5972 22.5446 52.5767 22.5446 52.5664 22.5446C52.5767 22.5446 52.5972 22.5446 52.6074 22.5446V116.662C53.2023 116.662 53.7972 116.518 54.3819 116.241L92.1887 94.4144C92.8964 94.0247 93.2349 93.6862 93.2349 93.2144V0L55.2742 21.9087Z" fill="url(#paint0_linear)"/>
<path opacity="0.3" d="M52.5664 22.5446C52.3407 22.5446 52.1151 22.5446 51.8894 22.5138C51.8792 22.5138 51.8587 22.5138 51.8484 22.5036C51.633 22.483 51.4176 22.442 51.2125 22.401C51.0791 22.3702 50.9458 22.3189 50.8125 22.2779C50.7304 22.2471 50.6484 22.2369 50.5663 22.2061C50.3509 22.1241 50.156 22.0317 49.9509 21.9189L11.98 0V93.2041C12.0005 93.6349 12.2672 93.9734 12.7185 94.2298L50.833 116.241C51.4074 116.518 51.9817 116.651 52.5561 116.662C52.5766 116.662 52.5869 116.672 52.6074 116.672V22.5446C52.5972 22.5446 52.5767 22.5446 52.5664 22.5446Z" fill="url(#paint1_linear)"/>
<defs>
<linearGradient id="paint0_linear" x1="96.3271" y1="95.0672" x2="65.1498" y2="33.4251" gradientUnits="userSpaceOnUse">
<stop stop-color="#1FC1A7"/>
<stop offset="1" stop-color="#1FC1A7" stop-opacity="0"/>
</linearGradient>
<linearGradient id="paint1_linear" x1="55.6965" y1="95.0756" x2="24.4962" y2="33.4556" gradientUnits="userSpaceOnUse">
<stop stop-color="#1FC1A7"/>
<stop offset="1" stop-color="#1FC1A7" stop-opacity="0"/>
</linearGradient>
</defs>
</svg>
