<svg width="40" height="39" viewBox="0 0 40 39" fill="none" xmlns="http://www.w3.org/2000/svg">
    <path d="M27.35 17.7158C26.67 14.2658 23.64 11.6758 20 11.6758C17.11 11.6758 14.6 13.3158 13.35 15.7158C10.34 16.0358 8 18.5858 8 21.6758C8 24.9858 10.69 27.6758 14 27.6758H27C29.76 27.6758 32 25.4358 32 22.6758C32 20.0358 29.95 17.8958 27.35 17.7158ZM27 25.6758H14C11.79 25.6758 10 23.8858 10 21.6758C10 19.4658 11.79 17.6758 14 17.6758H14.71C15.37 15.3658 17.48 13.6758 20 13.6758C23.04 13.6758 25.5 16.1358 25.5 19.1758V19.6758H27C28.66 19.6758 30 21.0158 30 22.6758C30 24.3358 28.66 25.6758 27 25.6758Z" fill="white"/>
</svg>
