<svg width="40" height="39" viewBox="0 0 40 39" fill="none" xmlns="http://www.w3.org/2000/svg">
    <path d="M19 15.6758V20.7858L23.71 23.5758L24.5 22.2958L20.5 19.9258V15.6758H19ZM20.5 10.6758C16.97 10.6758 13.91 12.5958 12.27 15.4458L10 13.1758V19.6758H16.5L13.75 16.9258C14.96 14.4058 17.5 12.6758 20.5 12.6758C22.4891 12.6758 24.3968 13.466 25.8033 14.8725C27.2098 16.279 28 18.1867 28 20.1758C28 22.1649 27.2098 24.0726 25.8033 25.4791C24.3968 26.8856 22.4891 27.6758 20.5 27.6758C17.23 27.6758 14.47 25.5858 13.44 22.6758H11.34C12.44 26.7058 16.11 29.6758 20.5 29.6758C25.74 29.6758 30 25.4258 30 20.1758C30 18.9282 29.7543 17.6929 29.2769 16.5403C28.7994 15.3877 28.0997 14.3404 27.2175 13.4583C26.3354 12.5761 25.2881 11.8763 24.1355 11.3989C22.9829 10.9215 21.7476 10.6758 20.5 10.6758Z" fill="white"/>
</svg>
