<svg width="40" height="41" viewBox="0 0 40 41" fill="none" xmlns="http://www.w3.org/2000/svg">
    <path d="M22.08 24.2658L24.67 21.6758H15V19.6758H24.67L22.08 17.0858L23.5 15.6758L28.5 20.6758L23.5 25.6758L22.08 24.2658ZM27 11.6758C27.5304 11.6758 28.0391 11.8865 28.4142 12.2616C28.7893 12.6366 29 13.1453 29 13.6758V18.3458L27 16.3458V13.6758H13V27.6758H27V25.0058L29 23.0058V27.6758C29 28.2062 28.7893 28.7149 28.4142 29.09C28.0391 29.4651 27.5304 29.6758 27 29.6758H13C11.89 29.6758 11 28.7758 11 27.6758V13.6758C11 12.5658 11.89 11.6758 13 11.6758H27Z" fill="white"/>
</svg>
