<svg width="40" height="39" viewBox="0 0 40 39" fill="none" xmlns="http://www.w3.org/2000/svg">
    <path d="M21 19.6758H28V21.1758H21V19.6758ZM21 17.1758H28V18.6758H21V17.1758ZM21 22.1758H28V23.6758H21V22.1758ZM29 11.6758H11C10.4696 11.6758 9.96086 11.8865 9.58579 12.2616C9.21071 12.6366 9 13.1453 9 13.6758V26.6758C9 27.2062 9.21071 27.7149 9.58579 28.09C9.96086 28.4651 10.4696 28.6758 11 28.6758H29C29.5304 28.6758 30.0391 28.4651 30.4142 28.09C30.7893 27.7149 31 27.2062 31 26.6758V13.6758C31 13.1453 30.7893 12.6366 30.4142 12.2616C30.0391 11.8865 29.5304 11.6758 29 11.6758ZM29 26.6758H20V13.6758H29" fill="white"/>
</svg>
