<svg width="40" height="38" viewBox="0 0 40 38" fill="none" xmlns="http://www.w3.org/2000/svg">
    <path d="M19.7293 22.5C18.8011 22.5 17.9108 22.1313 17.2545 21.4749C16.5981 20.8185 16.2293 19.9283 16.2293 19C16.2293 18.0717 16.5981 17.1815 17.2545 16.5251C17.9108 15.8687 18.8011 15.5 19.7293 15.5C20.6576 15.5 21.5478 15.8687 22.2042 16.5251C22.8606 17.1815 23.2293 18.0717 23.2293 19C23.2293 19.9283 22.8606 20.8185 22.2042 21.4749C21.5478 22.1313 20.6576 22.5 19.7293 22.5ZM27.1593 19.97C27.1993 19.65 27.2293 19.33 27.2293 19C27.2293 18.67 27.1993 18.34 27.1593 18L29.2693 16.37C29.4593 16.22 29.5093 15.95 29.3893 15.73L27.3893 12.27C27.2693 12.05 26.9993 11.96 26.7793 12.05L24.2893 13.05C23.7693 12.66 23.2293 12.32 22.5993 12.07L22.2293 9.42C22.1893 9.18 21.9793 9 21.7293 9H17.7293C17.4793 9 17.2693 9.18 17.2293 9.42L16.8593 12.07C16.2293 12.32 15.6893 12.66 15.1693 13.05L12.6793 12.05C12.4593 11.96 12.1893 12.05 12.0693 12.27L10.0693 15.73C9.93933 15.95 9.99933 16.22 10.1893 16.37L12.2993 18C12.2593 18.34 12.2293 18.67 12.2293 19C12.2293 19.33 12.2593 19.65 12.2993 19.97L10.1893 21.63C9.99933 21.78 9.93933 22.05 10.0693 22.27L12.0693 25.73C12.1893 25.95 12.4593 26.03 12.6793 25.95L15.1693 24.94C15.6893 25.34 16.2293 25.68 16.8593 25.93L17.2293 28.58C17.2693 28.82 17.4793 29 17.7293 29H21.7293C21.9793 29 22.1893 28.82 22.2293 28.58L22.5993 25.93C23.2293 25.67 23.7693 25.34 24.2893 24.94L26.7793 25.95C26.9993 26.03 27.2693 25.95 27.3893 25.73L29.3893 22.27C29.5093 22.05 29.4593 21.78 29.2693 21.63L27.1593 19.97Z" fill="white"/>
</svg>
