<svg width="1179" height="1891" viewBox="0 0 1179 1891" fill="none" xmlns="http://www.w3.org/2000/svg">
<g opacity="0.3">
<path d="M437.591 218.504H431.781V184.87C431.781 183.157 430.361 181.758 428.623 181.758H395.331V147.939H445.157C456.199 147.939 465.185 156.795 465.185 167.675V214.399H459.375V167.675C459.375 159.961 453.004 153.665 445.157 153.665H401.141V176.051H428.623C433.574 176.051 437.591 180.009 437.591 184.888V218.504Z" fill="white"/>
<path d="M747.358 163.699H725.406V42.1201H747.358V163.699ZM730.731 158.452H742.033V47.3853H730.731V158.452Z" fill="white"/>
<path d="M744.706 52.752H728.079V57.9987H744.706V52.752Z" fill="white"/>
<path d="M744.705 71.7495H728.078V89.386H744.705V71.7495Z" fill="white"/>
<path d="M747.597 92.2717H725.159V68.9097H747.597V92.2717ZM730.969 86.5463H741.787V74.6352H730.969V86.5463Z" fill="white"/>
<path d="M400.147 187.51H378.326V142.59H400.147V187.51ZM384.136 181.785H394.337V148.316H384.136V181.785Z" fill="white"/>
<path d="M376.487 187.51H354.666V142.59H376.487V187.51ZM360.476 181.785H370.677V148.316H360.476V181.785Z" fill="white"/>
<path d="M1028.06 776.926H1006.24V758.719H1028.04V776.926H1028.06ZM1013.24 770.023H1021.04V765.641H1013.24V770.023Z" fill="white"/>
<path d="M1028.06 806.219H1006.24V787.994H1028.05V806.219H1028.06ZM1013.25 799.316H1021.04V794.916H1013.25V799.316Z" fill="white"/>
<path d="M1028.06 835.509H1006.24V817.283H1028.05V835.509H1028.06ZM1013.25 828.605H1021.04V824.205H1013.25V828.605Z" fill="white"/>
<path d="M1028.06 864.798H1006.24V846.591H1028.05V864.798H1028.06ZM1013.25 857.876H1021.04V853.495H1013.25V857.876Z" fill="white"/>
<path d="M1028.06 894.095H1006.24V875.887H1028.05V894.095H1028.06ZM1013.25 887.172H1021.04V882.791H1013.25V887.172Z" fill="white"/>
<path d="M290.324 641.366C175.595 583.853 239.003 434.015 239.657 432.506L245 434.752C244.365 436.206 183.068 581.184 292.958 636.248L290.324 641.366Z" fill="white"/>
<path d="M289.861 598.149C237.531 558.107 253.542 488.703 270.15 439.972L275.662 441.794C249.824 517.624 255.316 564.441 293.429 593.62L289.861 598.149Z" fill="white"/>
<path d="M468.753 891.949C455.899 891.949 443.251 888.617 432.191 882.339L435.087 877.387C451.434 886.684 471.798 888.709 489.658 882.983L491.452 888.433C484.147 890.752 476.506 891.949 468.753 891.949ZM517.832 873.373L513.946 869.121C528.126 856.528 536.234 838.524 536.234 819.727L542.044 819.451V819.727C542.044 840.144 533.207 859.695 517.832 873.373ZM409.529 862.272C400.337 849.864 395.461 835.136 395.461 819.727C395.461 814.72 395.984 809.712 397.012 804.87L402.691 806.049C401.738 810.522 401.253 815.125 401.253 819.727C401.253 833.921 405.736 847.471 414.2 858.903L409.529 862.272ZM530.312 792.444C522.465 775.286 507.556 762.141 489.397 756.397L491.172 750.948C510.882 757.189 527.08 771.457 535.599 790.087L530.312 792.444ZM414.05 780.772L409.342 777.421C421.523 760.852 440.299 750.101 460.869 747.929L461.485 753.618C442.56 755.606 425.278 765.51 414.05 780.772Z" fill="white"/>
<path d="M272.35 279.568L266.539 279.55C266.875 198.841 294.003 159.812 354.534 152.964L355.188 158.652C298.206 165.096 272.667 202.394 272.35 279.568Z" fill="white"/>
<path d="M284.951 285.556C284.765 283.163 280.673 226.552 309.706 193.599C321.737 179.939 337.786 172.391 357.402 171.157L357.776 176.864C339.785 177.987 325.082 184.872 314.115 197.318C286.689 228.43 290.706 284.525 290.762 285.096L284.951 285.556Z" fill="white"/>
<path d="M381.24 148.44H373.599V153.153H381.24V148.44Z" fill="white"/>
<path d="M381.24 176.529H373.599V181.242H381.24V176.529Z" fill="white"/>
<path d="M724.256 914.558H563.754V934.091H724.256V914.558Z" fill="white"/>
<path d="M726.861 936.672H561.128V911.985H726.861V936.672ZM566.359 931.518H721.649V917.139H566.359V931.518Z" fill="white"/>
<path d="M279.199 933.632C270.306 933.632 261.712 931.791 253.454 928.091C230.493 917.818 218.424 896.831 216.164 888.271C210.241 865.755 214.576 800.676 304.663 770.355L306.83 776.596C204.057 811.189 222.441 885.859 222.646 886.614C224.552 893.867 235.668 912.885 256.238 922.089C273.127 929.638 291.753 928.496 311.632 918.702L314.621 924.593C302.384 930.613 290.558 933.632 279.199 933.632Z" fill="white"/>
<path d="M279.233 910.431C265.819 910.431 251.396 904.835 241.606 885.449C239.682 881.62 233.89 867.592 240.822 848.317C246.24 833.22 261.204 811.368 301.708 793.069L304.548 791.798L306.921 797.082L304.155 798.315C265.501 815.786 251.377 836.203 246.333 850.25C241.457 863.873 243.4 876.042 246.856 882.89C260.27 909.493 283.455 906.952 300.55 900.14L302.736 905.479C296.458 908.001 288.07 910.431 279.233 910.431Z" fill="white"/>
<path d="M355.795 781.962H345.875V787.687H355.795V781.962Z" fill="white"/>
<path d="M180.221 650.434H175.438V702.718H180.221V650.434Z" fill="white"/>
<path d="M192.864 650.434H188.081V701.245H192.864V650.434Z" fill="white"/>
<path d="M619.165 13.1748H616.381V95.8165H619.165V13.1748Z" fill="white"/>
<path d="M619.164 1808.35H616.38V1890.99H619.164V1808.35Z" fill="white"/>
<path d="M771.695 194.294L479.238 194.294V163.494L771.695 163.494V194.294ZM485.049 188.568L765.885 188.568V169.201L485.049 169.201V188.568Z" fill="white"/>
<path d="M730.977 242.447L552.334 242.447V236.722L725.167 236.722V194.287L529.859 194.287V215.514H524.067V188.562L730.977 188.562V242.447Z" fill="white"/>
<path d="M768.805 155.824L482.158 155.824V166.354L768.805 166.354V155.824Z" fill="white"/>
<path d="M770.296 167.814L480.642 167.814V154.319L770.296 154.319V167.814ZM483.649 164.868L767.307 164.868V157.283L483.649 157.283V164.868Z" fill="white"/>
<path d="M509.96 1066.31L484.832 1066.02L485.859 980.779L510.988 981.073L509.96 1066.31ZM489.652 1061.38L505.233 1061.56L506.149 985.731L490.567 985.547L489.652 1061.38Z" fill="white"/>
<path d="M547.751 1066.76L522.623 1066.46L523.65 981.226L548.779 981.52L547.751 1066.76ZM527.462 1061.81L543.043 1061.99L543.959 986.159L528.377 985.975L527.462 1061.81Z" fill="white"/>
<path d="M586.458 1066.05L561.33 1065.75L562.358 980.514L587.486 980.808L586.458 1066.05ZM566.15 1061.11L581.731 1061.3L582.647 985.466L567.066 985.282L566.15 1061.11Z" fill="white"/>
<path d="M741.671 1138.53H535.715V1159.52H741.671V1138.53Z" fill="white"/>
<path d="M744.577 1162.4H532.811V1135.68H744.577V1162.4ZM538.621 1156.67H738.767V1141.41H538.621V1156.67Z" fill="white"/>
<path d="M619.712 592.08C581.823 592.08 550.997 561.704 550.997 524.369V395.629H553.893C603.495 395.5 611.585 395.923 616.947 396.181C623.205 396.494 626.045 396.641 685.474 395.629L688.426 395.574V524.369C688.445 561.704 657.619 592.08 619.712 592.08ZM556.807 401.336V524.369C556.807 558.556 585.037 586.355 619.712 586.355C654.405 586.355 682.616 558.537 682.616 524.369V401.391C625.84 402.348 622.925 402.201 616.648 401.888C611.454 401.63 603.682 401.244 556.807 401.336Z" fill="white"/>
<path d="M616.853 711.252C528.167 711.252 455.996 653.224 455.996 581.886V518.169H462.273V581.886C462.273 649.818 531.623 705.066 616.853 705.066C702.083 705.066 771.433 649.8 771.433 581.886V518.667H777.71V581.886C777.71 653.224 705.558 711.252 616.853 711.252Z" fill="white"/>
<path d="M777.719 498.778H771.441V339.865L609.071 339.846L540.693 339.865V333.679L609.071 333.661L777.719 333.679V498.778Z" fill="white"/>
<path d="M461.678 425.562H456.597V499.182H461.678V425.562Z" fill="white"/>
<path d="M685.554 398.471H553.936V417.543H685.554V398.471Z" fill="white"/>
<path d="M688.465 420.404H551.036V395.605H688.465V420.404ZM556.828 414.697H682.655V401.35H556.828V414.697Z" fill="white"/>
<path d="M639.582 1059.98H581.704V1057.12C581.648 1029.84 581.648 1029.42 581.666 1026.36C581.685 1023.77 581.704 1019.29 581.704 994.881V992.027H639.582C655.313 992.027 668.111 1007.27 668.111 1025.99C668.111 1044.73 655.313 1059.98 639.582 1059.98ZM587.495 1054.25H639.582C652.1 1054.25 662.3 1041.59 662.3 1025.99C662.3 1010.42 652.1 997.734 639.582 997.734H587.514C587.514 1019.66 587.495 1023.89 587.477 1026.38C587.458 1029.33 587.458 1029.84 587.495 1054.25Z" fill="white"/>
<path d="M727.401 1081.17H557.67V958.171H727.401V1081.17ZM563.48 1075.44H721.61V963.878H563.48V1075.44Z" fill="white"/>
<path d="M744.568 957.247H549.429V927.92H744.568V957.247ZM555.239 951.522H738.758V933.646H555.239V951.522Z" fill="white"/>
<path d="M934.678 1010.36C907.065 1010.36 884.608 988.236 884.608 961.026C884.608 933.816 907.065 911.688 934.678 911.688C962.291 911.688 984.747 933.816 984.747 961.026C984.747 988.236 962.272 1010.36 934.678 1010.36ZM934.678 917.413C910.278 917.413 890.419 936.983 890.419 961.026C890.419 985.069 910.278 1004.64 934.678 1004.64C959.077 1004.64 978.937 985.069 978.937 961.026C978.937 936.983 959.077 917.413 934.678 917.413Z" fill="white"/>
<path d="M658.54 917.412H532.582V911.705H652.73V745.556H554.833V739.831H658.54V917.412Z" fill="white"/>
<path d="M860.125 916.923H694.242V740.354H796.454V745.049H699.006V912.21H855.361V884.08H860.125V916.923Z" fill="white"/>
<path d="M784.533 1128.42H505.695V1081.68H784.533V1128.42ZM510.459 1123.73H779.75V1086.39H510.459V1123.73Z" fill="white"/>
<path d="M779.228 305.963L473.432 305.963V236.742L779.228 236.742V305.963ZM479.242 300.237L773.418 300.237V242.449L479.242 242.449V300.237Z" fill="white"/>
<path d="M419.555 291.664H415.632V237.281C415.632 224.21 426.43 213.569 439.676 213.569L530.231 213.569C543.495 213.569 554.294 224.21 554.294 237.281V239.601H550.37V237.281C550.37 226.346 541.328 217.435 530.231 217.435L439.676 217.435C428.579 217.435 419.536 226.346 419.536 237.281V291.664H419.555Z" fill="white"/>
<path d="M706.048 158.851L541.306 158.851V114.096L706.048 114.096V158.851ZM547.471 152.757L699.883 152.757V120.153L547.471 120.153V152.757Z" fill="white"/>
<path d="M710.988 104.586L534.157 104.586V59.6104L710.988 59.6104V104.586ZM540.565 98.2894L704.598 98.2894V65.9065L540.565 65.9065V98.2894Z" fill="white"/>
<path d="M696.031 119.998L549.429 119.998V101.239L696.031 101.239V119.998ZM555.239 114.273L690.239 114.273V106.964L555.239 106.964V114.273Z" fill="white"/>
<path d="M722.565 1141.64H557.43V1122.99H722.565V1141.64ZM563.707 1135.47H716.306V1129.19H563.707V1135.47Z" fill="white"/>
<path d="M791.136 1094.49H497.913V1101.78H791.136V1094.49Z" fill="white"/>
<path d="M794.029 1104.64H494.995V1091.62H794.029V1104.64ZM500.805 1098.93H788.218V1097.37H500.805V1098.93Z" fill="white"/>
<path d="M635.21 1071.47C609.765 1071.47 589.083 1051.07 589.083 1026C589.083 1000.92 609.783 980.545 635.21 980.545C660.656 980.545 681.356 1000.94 681.356 1026C681.356 1051.07 660.656 1071.47 635.21 1071.47ZM635.21 986.271C612.978 986.271 594.875 1004.09 594.875 1026C594.875 1047.91 612.959 1065.75 635.21 1065.75C657.443 1065.75 675.546 1047.93 675.546 1026C675.546 1004.09 657.461 986.271 635.21 986.271Z" fill="white"/>
<path d="M394.987 1393.91L390.13 1391.65C441.507 1284.23 495.5 1205.45 550.576 1157.53L551.342 1156.87H638.72V1162.15H553.378C499.105 1209.68 445.823 1287.65 394.987 1393.91Z" fill="white"/>
<path d="M260.953 1764.72L255.778 1763.34C276.236 1688.86 319.729 1543.99 381.157 1410.79L386.052 1412.98C324.773 1545.83 281.373 1690.38 260.953 1764.72Z" fill="white"/>
<path d="M249.952 1806.13L244.74 1804.84C245.749 1800.87 246.87 1796.52 248.103 1791.83L253.297 1793.15C252.101 1797.85 250.98 1802.18 249.952 1806.13Z" fill="white"/>
<path d="M882.411 1393.95C831.575 1287.67 778.292 1209.7 724.038 1162.19H638.696V1156.9H726.075L726.841 1157.57C781.917 1205.49 835.91 1284.26 887.287 1391.7L882.411 1393.95Z" fill="white"/>
<path d="M945.952 1545.19C928.279 1497.66 909.82 1453.02 891.138 1412.51L896.033 1410.32C914.771 1450.95 933.286 1495.71 950.997 1543.37L945.952 1545.19Z" fill="white"/>
<path d="M1016.43 1764.69C1003.54 1717.73 982.145 1645.14 953.561 1565.94L958.623 1564.15C987.264 1643.52 1008.69 1716.25 1021.6 1763.29L1016.43 1764.69Z" fill="white"/>
<path d="M1027.02 1804.55L1024.37 1794.33L1029.58 1793.01L1032.23 1803.24L1027.02 1804.55Z" fill="white"/>
<path d="M1034.62 1795.38L244.539 1795.38C237.421 1795.38 231.629 1789.67 231.629 1782.66V1773.88C231.629 1766.86 237.421 1761.15 244.539 1761.15L1034.62 1761.15C1041.74 1761.15 1047.53 1766.86 1047.53 1773.88V1782.66C1047.53 1789.67 1041.74 1795.38 1034.62 1795.38ZM244.539 1766.92C240.653 1766.92 237.477 1770.05 237.477 1773.88V1782.66C237.477 1786.49 240.653 1789.62 244.539 1789.62L1034.62 1789.62C1038.51 1789.62 1041.69 1786.49 1041.69 1782.66V1773.88C1041.69 1770.05 1038.51 1766.92 1034.62 1766.92L244.539 1766.92Z" fill="white"/>
<path d="M1042.37 1836.87L231.215 1836.87C224.003 1836.87 218.137 1831.09 218.137 1823.98V1815.46C218.137 1808.35 224.003 1802.57 231.215 1802.57L1042.37 1802.57C1049.59 1802.57 1055.45 1808.35 1055.45 1815.46V1823.98C1055.45 1831.09 1049.59 1836.87 1042.37 1836.87ZM231.196 1808.41C227.254 1808.41 224.04 1811.57 224.04 1815.46V1823.98C224.04 1827.87 227.254 1831.03 231.196 1831.03L1042.36 1831.03C1046.3 1831.03 1049.51 1827.87 1049.51 1823.98V1815.46C1049.51 1811.57 1046.3 1808.41 1042.36 1808.41L231.196 1808.41Z" fill="white"/>
<path d="M699.536 810.198H652.736V766.77H699.536V810.198ZM658.547 804.473H693.726V772.495H658.547V804.473Z" fill="white"/>
<path d="M699.536 886.921H652.736V843.51H699.536V886.921ZM658.547 881.214H693.726V849.236H658.547V881.214Z" fill="white"/>
<path d="M415.739 918.869C360.259 886.838 340.807 816.318 372.37 761.649C403.934 706.979 474.731 688.566 530.211 720.597C585.691 752.628 605.134 823.163 573.58 877.817C542.016 932.487 471.219 950.9 415.739 918.869ZM527.293 725.651C474.645 695.254 407.452 712.73 377.499 764.61C347.547 816.49 366.008 883.418 418.657 913.815C471.305 944.211 538.498 926.735 568.451 874.856C598.403 822.976 579.942 756.048 527.293 725.651Z" fill="white"/>
<path d="M422.886 906.499C374.331 878.466 357.305 816.746 384.929 768.9C412.553 721.053 474.517 704.938 523.072 732.971C571.627 761.004 588.652 822.724 561.028 870.57C533.404 918.416 471.441 934.532 422.886 906.499ZM520.513 737.403C474.45 710.809 415.634 726.106 389.427 771.496C363.212 816.903 379.381 875.472 425.445 902.067C471.508 928.661 530.324 913.364 556.53 867.973C582.736 822.582 566.576 763.998 520.513 737.403Z" fill="white"/>
<path d="M339.743 490.686H323.34C316.259 490.686 310.486 485.016 310.486 478.02L310.486 266.418C310.486 259.441 316.241 253.752 323.34 253.752H339.743C346.824 253.752 352.597 259.422 352.597 266.418L352.597 478.02C352.597 484.998 346.824 490.686 339.743 490.686ZM323.34 258.888C319.118 258.888 315.699 262.276 315.699 266.418L315.699 478.02C315.699 482.181 319.136 485.55 323.34 485.55H339.743C343.965 485.55 347.384 482.163 347.384 478.02L347.384 266.418C347.384 262.257 343.947 258.888 339.743 258.888H323.34Z" fill="white"/>
<path d="M438.701 451.114H347.344V289.052H438.701V451.114ZM352.631 445.922H433.433V294.281H352.631V445.922Z" fill="white"/>
<path d="M274.372 92.5464L0 92.5464L0 68.0981L274.372 68.0981V92.5464ZM5.19381 87.4285L269.16 87.4285V73.2161L5.19381 73.2161L5.19381 87.4285Z" fill="white"/>
<path d="M263.412 176.421L10.5615 176.421L10.5615 122.48L263.412 122.48V176.421ZM15.7738 171.303L258.236 171.303V127.598L15.7738 127.598L15.7738 171.303Z" fill="white"/>
<path d="M263.419 242.389L16.3799 242.389L16.3799 188.448L263.419 188.448V242.389ZM21.5922 237.271L258.244 237.271V193.566L21.5922 193.566L21.5922 237.271Z" fill="white"/>
<path d="M347.115 822.29H303.659L303.659 532.795H347.115L347.115 822.29ZM308.853 817.172H341.921L341.921 537.913H308.853L308.853 817.172Z" fill="white"/>
<path d="M361.189 804.567H353.137L353.137 539.465H454.097V710.217H448.773V544.731H358.461L358.461 799.32H361.189V804.567Z" fill="white"/>
<path d="M623.613 735.905H612.105C608.48 735.905 605.547 733.015 605.547 729.443V593.045C605.547 589.473 608.48 586.583 612.105 586.583H623.613C627.237 586.583 630.17 589.473 630.17 593.045V729.443C630.17 732.996 627.237 735.905 623.613 735.905ZM612.105 591.83C611.432 591.83 610.871 592.363 610.871 593.045V729.443C610.871 730.106 611.413 730.658 612.105 730.658H623.613C624.285 730.658 624.846 730.124 624.846 729.443V593.045C624.846 592.382 624.304 591.83 623.613 591.83H612.105Z" fill="white"/>
<path d="M550 520.814H411.58C407.956 520.814 405.022 517.923 405.022 514.352V503.012C405.022 499.459 407.956 496.55 411.58 496.55H550C553.624 496.55 556.557 499.44 556.557 503.012V514.352C556.557 517.923 553.624 520.814 550 520.814ZM411.599 501.815C410.926 501.815 410.366 502.349 410.366 503.03V514.37C410.366 515.033 410.908 515.585 411.599 515.585H550.018C550.691 515.585 551.251 515.052 551.251 514.37V503.03C551.251 502.367 550.71 501.815 550.018 501.815H411.599Z" fill="white"/>
<path d="M827.844 520.814H689.425C685.8 520.814 682.867 517.923 682.867 514.352V503.012C682.867 499.459 685.8 496.55 689.425 496.55H827.844C831.468 496.55 834.402 499.44 834.402 503.012V514.352C834.402 517.923 831.468 520.814 827.844 520.814ZM689.425 501.815C688.752 501.815 688.192 502.349 688.192 503.03V514.37C688.192 515.033 688.734 515.585 689.425 515.585H827.844C828.517 515.585 829.077 515.052 829.077 514.37V503.03C829.077 502.367 828.535 501.815 827.844 501.815H689.425Z" fill="white"/>
<path d="M475.934 674.645C474.252 674.645 472.571 674.019 471.301 672.749L463.174 664.741C460.614 662.219 460.614 658.113 463.174 655.591L561.052 559.142C563.611 556.62 567.778 556.62 570.318 559.142L578.445 567.15C581.005 569.672 581.005 573.778 578.445 576.3L480.567 672.749C479.297 674.019 477.615 674.645 475.934 674.645ZM565.685 562.511C565.367 562.511 565.05 562.622 564.826 562.861L466.947 659.31C466.536 659.715 466.536 660.617 466.947 661.022L475.074 669.03C475.56 669.491 476.326 669.491 476.812 669.03L574.69 572.581C575.176 572.102 575.176 571.348 574.69 570.869L566.563 562.861C566.302 562.64 565.984 562.511 565.685 562.511Z" fill="white"/>
<path d="M769.124 670.84C767.443 670.84 765.761 670.214 764.491 668.944L666.613 572.495C664.053 569.973 664.053 565.867 666.613 563.363L674.74 555.355C677.3 552.833 681.466 552.833 684.025 555.355L781.903 651.804C784.463 654.326 784.463 658.432 781.903 660.936L773.758 668.944C772.469 670.214 770.806 670.84 769.124 670.84ZM679.392 558.706C679.074 558.706 678.757 558.834 678.514 559.055L670.387 567.064C669.901 567.524 669.901 568.297 670.387 568.776L768.265 665.225C768.751 665.685 769.517 665.685 770.002 665.225L778.148 657.217C778.615 656.757 778.615 655.983 778.148 655.505L680.27 559.055C680.008 558.834 679.691 558.706 679.392 558.706Z" fill="white"/>
<path d="M720.831 339.618L540.694 339.618V333.893H715.021V305.965L525.355 305.965V321.834H519.545V300.239L720.831 300.239V339.618Z" fill="white"/>
<path d="M572.037 667.283C559.407 667.283 549.132 657.157 549.132 644.712C549.132 632.267 559.407 622.142 572.037 622.142C584.666 622.142 594.942 632.267 594.942 644.712C594.942 657.157 584.666 667.283 572.037 667.283ZM572.037 627.867C562.621 627.867 554.942 635.434 554.942 644.712C554.942 653.991 562.621 661.557 572.037 661.557C581.453 661.557 589.131 653.991 589.131 644.712C589.131 635.415 581.453 627.867 572.037 627.867Z" fill="white"/>
<path d="M572.036 658.518C564.302 658.518 558.024 652.332 558.024 644.71C558.024 637.089 564.302 630.903 572.036 630.903C579.771 630.903 586.048 637.089 586.048 644.71C586.048 652.313 579.771 658.518 572.036 658.518ZM572.036 636.61C567.515 636.61 563.835 640.237 563.835 644.692C563.835 649.147 567.515 652.774 572.036 652.774C576.557 652.774 580.238 649.147 580.238 644.692C580.238 640.237 576.557 636.61 572.036 636.61Z" fill="white"/>
<path d="M671.837 667.283C659.207 667.283 648.932 657.157 648.932 644.712C648.932 632.267 659.207 622.142 671.837 622.142C684.466 622.142 694.742 632.267 694.742 644.712C694.742 657.157 684.466 667.283 671.837 667.283ZM671.837 627.867C662.421 627.867 654.742 635.434 654.742 644.712C654.742 653.991 662.402 661.557 671.837 661.557C681.253 661.557 688.931 653.991 688.931 644.712C688.95 635.415 681.271 627.867 671.837 627.867Z" fill="white"/>
<path d="M671.848 658.518C664.113 658.518 657.836 652.332 657.836 644.71C657.836 637.089 664.113 630.903 671.848 630.903C679.582 630.903 685.86 637.089 685.86 644.71C685.878 652.313 679.582 658.518 671.848 658.518ZM671.848 636.61C667.327 636.61 663.646 640.237 663.646 644.692C663.646 649.147 667.327 652.774 671.848 652.774C676.369 652.774 680.068 649.147 680.068 644.692C680.068 640.237 676.388 636.61 671.848 636.61Z" fill="white"/>
<path d="M500.82 474.157C488.19 474.157 477.915 464.031 477.915 451.586C477.915 439.141 488.19 429.016 500.82 429.016C513.449 429.016 523.725 439.141 523.725 451.586C523.706 464.031 513.449 474.157 500.82 474.157ZM500.82 434.741C491.385 434.741 483.725 442.308 483.725 451.586C483.725 460.883 491.404 468.431 500.82 468.431C510.236 468.431 517.914 460.865 517.914 451.586C517.914 442.289 510.236 434.741 500.82 434.741Z" fill="white"/>
<path d="M500.83 465.393C493.096 465.393 486.818 459.207 486.818 451.585C486.818 443.964 493.096 437.778 500.83 437.778C508.565 437.778 514.842 443.964 514.842 451.585C514.842 459.207 508.546 465.393 500.83 465.393ZM500.83 443.503C496.309 443.503 492.629 447.13 492.629 451.585C492.629 456.04 496.309 459.667 500.83 459.667C505.352 459.667 509.032 456.04 509.032 451.585C509.032 447.13 505.352 443.503 500.83 443.503Z" fill="white"/>
<path d="M724.251 470.537C711.621 470.537 701.346 460.412 701.346 447.966C701.346 435.521 711.621 425.396 724.251 425.396C736.88 425.396 747.155 435.521 747.155 447.966C747.155 460.412 736.88 470.537 724.251 470.537ZM724.251 431.121C714.835 431.121 707.156 438.688 707.156 447.966C707.156 457.263 714.835 464.812 724.251 464.812C733.667 464.812 741.345 457.245 741.345 447.966C741.345 438.67 733.685 431.121 724.251 431.121Z" fill="white"/>
<path d="M724.244 461.777C716.51 461.777 710.232 455.592 710.232 447.97C710.232 440.348 716.51 434.163 724.244 434.163C731.979 434.163 738.256 440.348 738.256 447.97C738.256 455.592 731.979 461.777 724.244 461.777ZM724.244 439.888C719.723 439.888 716.043 443.515 716.043 447.97C716.043 452.425 719.723 456.052 724.244 456.052C728.766 456.052 732.446 452.425 732.446 447.97C732.446 443.515 728.766 439.888 724.244 439.888Z" fill="white"/>
<path d="M500.82 578.641C488.19 578.641 477.915 568.516 477.915 556.07C477.915 543.625 488.19 533.5 500.82 533.5C513.449 533.5 523.725 543.625 523.725 556.07C523.706 568.516 513.449 578.641 500.82 578.641ZM500.82 539.225C491.385 539.225 483.725 546.792 483.725 556.07C483.725 565.349 491.404 572.916 500.82 572.916C510.236 572.916 517.914 565.349 517.914 556.07C517.914 546.792 510.236 539.225 500.82 539.225Z" fill="white"/>
<path d="M500.83 569.875C493.096 569.875 486.818 563.689 486.818 556.068C486.818 548.446 493.096 542.26 500.83 542.26C508.565 542.26 514.842 548.446 514.842 556.068C514.842 563.689 508.546 569.875 500.83 569.875ZM500.83 547.986C496.309 547.986 492.629 551.612 492.629 556.068C492.629 560.523 496.309 564.15 500.83 564.15C505.352 564.15 509.032 560.523 509.032 556.068C509.032 551.612 505.352 547.986 500.83 547.986Z" fill="white"/>
<path d="M728.07 577.625C715.44 577.625 705.165 567.5 705.165 555.055C705.165 542.61 715.44 532.484 728.07 532.484C740.699 532.484 750.975 542.61 750.975 555.055C750.975 567.518 740.699 577.625 728.07 577.625ZM728.07 538.228C718.654 538.228 710.975 545.795 710.975 555.073C710.975 564.352 718.635 571.918 728.07 571.918C737.505 571.918 745.164 564.352 745.164 555.073C745.164 545.776 737.486 538.228 728.07 538.228Z" fill="white"/>
<path d="M728.072 568.866C720.337 568.866 714.06 562.681 714.06 555.059C714.06 547.437 720.337 541.251 728.072 541.251C735.806 541.251 742.083 547.437 742.083 555.059C742.083 562.662 735.787 568.866 728.072 568.866ZM728.072 546.958C723.55 546.958 719.87 550.585 719.87 555.04C719.87 559.496 723.55 563.122 728.072 563.122C732.593 563.122 736.292 559.496 736.292 555.04C736.292 550.585 732.593 546.958 728.072 546.958Z" fill="white"/>
<path d="M720.588 320.673L519.788 320.673V300.478L720.588 300.478V320.673ZM525.113 315.426L715.245 315.426V305.724L525.113 305.724V315.426Z" fill="white"/>
<path d="M787.277 389.659L550.232 389.659V383.732L781.261 383.732V337.007L538.425 337.007V331.061L787.277 331.061V389.659Z" fill="white"/>
<path d="M459.148 490.749H382.848V448.517H388.191V485.502H459.148V490.749Z" fill="white"/>
<path d="M487.094 432.447H451.504V310.169H487.094V432.447ZM457.314 426.721H481.284V315.894H457.314V426.721Z" fill="white"/>
<path d="M347.193 641.436H288.978V593.276H347.193V641.436ZM294.302 636.189H341.868V598.523H294.302V636.189Z" fill="white"/>
<path d="M347.193 757.366H288.978V709.206H347.193V757.366ZM294.302 752.119H341.868V714.453H294.302V752.119Z" fill="white"/>
<path d="M239.138 715.795H209.601V628.238H239.138V715.795ZM214.944 710.549H233.813V633.503H214.944V710.549Z" fill="white"/>
<path d="M214.942 705.329H148.638V647.798H214.942V705.329ZM153.962 700.082H209.599V653.063H153.962V700.082Z" fill="white"/>
<path d="M308.925 705.329H233.803V647.798H308.925V705.329ZM239.127 700.082H303.601V653.063H239.127V700.082Z" fill="white"/>
<path d="M454.1 619.971H353.121V602.795H454.1V619.971ZM358.464 614.724H448.776V608.06H358.464V614.724Z" fill="white"/>
<path d="M454.1 558.672H353.121V541.496H454.1V558.672ZM358.464 553.426H448.776V546.761H358.464V553.426Z" fill="white"/>
<path d="M454.1 676.801H353.121V659.625H454.1V676.801ZM358.464 671.536H448.776V664.871H358.464V671.536Z" fill="white"/>
<path d="M394.612 741.856H353.137V724.679H409.539V729.945H358.461V736.609H394.612V741.856Z" fill="white"/>
<path d="M361.45 803.037H353.137V785.86H364.271V791.107H358.461V797.771H361.45V803.037Z" fill="white"/>
<path d="M819.831 499.183H814.507V392.333C814.507 388.283 811.162 384.987 807.052 384.987H804.044C799.934 384.987 796.59 388.283 796.59 392.333V499.183H791.266V392.333C791.266 385.392 797.001 379.74 804.044 379.74H807.052C814.096 379.74 819.831 385.392 819.831 392.333V499.183Z" fill="white"/>
<path d="M807.052 586.102H804.044C797.001 586.102 791.266 580.45 791.266 573.509V518.169H796.59V573.509C796.59 577.56 799.934 580.855 804.044 580.855H807.052C811.162 580.855 814.507 577.56 814.507 573.509V518.169H819.831V573.509C819.831 580.468 814.096 586.102 807.052 586.102Z" fill="white"/>
<path d="M521.877 161.747H499.925V40.1685H521.877V161.747ZM505.249 156.482H516.552V45.4152H505.249V156.482Z" fill="white"/>
<path d="M519.225 50.7974H502.598V56.0441H519.225V50.7974Z" fill="white"/>
<path d="M519.225 69.7988H502.598V87.4353H519.225V69.7988Z" fill="white"/>
<path d="M522.122 90.302H499.685V66.9399H522.122V90.302ZM505.495 84.5766H516.312V72.6655H505.495V84.5766Z" fill="white"/>
<path d="M686.058 163.699H664.105V42.1201H686.058V163.699ZM669.43 158.452H680.733V47.3853H669.43V158.452Z" fill="white"/>
<path d="M683.406 52.7524H666.778V57.9992H683.406V52.7524Z" fill="white"/>
<path d="M683.406 71.7485H666.778V89.3851H683.406V71.7485Z" fill="white"/>
<path d="M686.311 92.2708H663.873V68.9087H686.311V92.2708ZM669.683 86.5453H680.501V74.6342H669.683V86.5453Z" fill="white"/>
<path d="M584.644 162.225H562.692V40.647H584.644V162.225ZM568.017 156.96H579.32V45.8937H568.017V156.96Z" fill="white"/>
<path d="M581.971 51.27H565.344V56.5168H581.971V51.27Z" fill="white"/>
<path d="M581.974 70.29H565.347V87.9267H581.974V70.29Z" fill="white"/>
<path d="M584.869 90.7781H562.432V67.416H584.869V90.7781ZM568.242 85.0527H579.059V73.1416H568.242V85.0527Z" fill="white"/>
<path d="M831.736 1264.94H455.413V1270.46H831.736V1264.94Z" fill="white"/>
<path d="M896.259 1414.7H380.77C373.895 1414.7 368.309 1409.2 368.309 1402.42C368.309 1395.47 373.895 1389.96 380.77 1389.96H896.259C903.134 1389.96 908.72 1395.47 908.72 1402.24C908.72 1409.2 903.134 1414.7 896.259 1414.7ZM380.788 1395.63C377.089 1395.63 374.081 1398.6 374.081 1402.24C374.081 1406.07 377.089 1409.03 380.788 1409.03H896.278C899.977 1409.03 902.985 1406.07 902.985 1402.42C902.985 1398.59 899.977 1395.63 896.278 1395.63H380.788Z" fill="white"/>
<path d="M819.824 915.461H757.368V929.656H819.824V915.461Z" fill="white"/>
<path d="M822.713 932.507H754.447V912.588H822.713V932.507ZM760.258 926.782H816.903V918.313H760.258V926.782Z" fill="white"/>
<path d="M720.762 742.921L714.952 742.811C715.157 732.906 715.419 715.251 714.821 708.421C714.279 702.235 708.973 698.13 698.025 691.797L700.958 686.863C711.589 692.994 719.772 698.443 720.594 707.924C721.229 715.012 720.967 732.888 720.762 742.921Z" fill="white"/>
<path d="M741.737 745.047L735.591 744.9C735.591 744.55 736.432 709.958 735.591 699.28C735.03 692.082 729.724 687.516 718.029 679.986L721.392 674.905C732.415 681.993 740.915 688.252 741.719 698.82C742.578 709.792 741.775 743.611 741.737 745.047Z" fill="white"/>
<path d="M512.822 428.407H433.197V425.553C433.122 384.665 433.365 378 433.533 373.6C433.72 368.427 433.813 366.071 433.197 317.082L433.159 314.192H512.822C536.212 314.192 555.25 339.818 555.25 371.299C555.25 402.78 536.212 428.407 512.822 428.407ZM438.988 422.681H512.822C533.018 422.681 549.439 399.632 549.439 371.299C549.439 342.966 533.018 319.917 512.822 319.917H439.044C439.623 366.255 439.53 368.648 439.343 373.821C439.175 378.074 438.932 384.462 438.988 422.681Z" fill="white"/>
<path d="M214.095 191.367C213.497 186.728 212.974 181.812 212.563 176.713L60.7482 176.713C61.1592 181.426 61.6075 186.083 62.1307 190.686L56.3576 191.33C55.7037 185.678 55.1621 179.916 54.695 174.08L54.4521 170.987L217.943 170.987L218.13 173.638C218.578 179.585 219.158 185.292 219.849 190.631L214.095 191.367Z" fill="white"/>
<path d="M312.754 447.657C177.138 431.181 93.7385 361.481 64.8926 240.473L70.5535 239.166C99.1938 359.272 178.651 425.621 313.483 441.987L312.754 447.657Z" fill="white"/>
<path d="M366.918 451.461L363.985 451.387C359.24 451.258 354.532 451.074 349.898 450.835L350.197 445.109C353.84 445.293 357.502 445.441 361.201 445.569C361.762 406.191 361.426 396.765 361.033 385.866C360.585 373.182 360.08 358.822 360.809 294.314L349.917 294.001L350.104 288.276L366.675 288.755L366.638 291.571C365.872 358.344 366.376 372.869 366.825 385.664C367.217 396.894 367.554 406.596 366.937 448.552L366.918 451.461Z" fill="white"/>
<path d="M312.827 291.948C272.846 288.193 244.58 278.362 227.242 241.008L232.529 238.633C248.708 273.483 275.462 282.688 313.388 286.26L312.827 291.948Z" fill="white"/>
<path d="M229.196 127.899L56.6436 127.88L43.4912 87.1211L237.958 87.1395L229.196 127.899ZM60.9033 122.155L224.507 122.173L230.821 92.8465L51.4498 92.8281L60.9033 122.155Z" fill="white"/>
<path d="M457.367 928.785L453.479 931.234L487.849 984.202L491.737 981.752L457.367 928.785Z" fill="white"/>
<path d="M560.307 1000.98L557.823 997.149L560.289 995.603L513.975 924.228L517.861 921.78L566.659 996.984L560.307 1000.98Z" fill="white"/>
<path d="M474.317 962.851L465.032 948.528L500.959 925.883L503.163 929.289L470.693 949.761L475.569 957.254L518.259 930.357L514.205 924.098L517.661 921.925L523.919 931.59L474.317 962.851Z" fill="white"/>
<path d="M488.046 984.01L478.761 969.688L528.382 938.428L537.667 952.75L488.046 984.01ZM484.421 970.921L489.279 978.432L531.969 951.536L527.111 944.043L484.421 970.921Z" fill="white"/>
<path d="M524.878 984.768L511.436 993.237L513.65 996.65L527.092 988.18L524.878 984.768Z" fill="white"/>
<path d="M507.874 984.878L505.651 981.472L541.597 958.828L550.882 973.132L532.666 984.62L530.462 981.214L545.221 971.917L540.345 964.406L507.874 984.878Z" fill="white"/>
<path d="M699.536 900.002H652.736V751.858H699.536V900.002ZM658.547 894.277H693.726V757.584H658.547V894.277Z" fill="white"/>
<path d="M562.221 1058.73H486.09V993.265H562.221V1058.73ZM489.359 1055.51H558.933V996.505H489.359V1055.51Z" fill="white"/>
<path d="M929.512 758.016H838.845C792.756 758.016 755.278 721.068 755.278 675.669V659.45H761.967V675.669C761.967 717.441 796.455 751.426 838.845 751.426H929.512C971.903 751.426 1006.39 717.441 1006.39 675.669V607.019C1006.43 573.808 1006.45 555.526 998.114 547.316C989.334 538.645 969.325 538.645 929.493 538.645H838.827C831.765 538.645 824.777 539.602 818.033 541.48L816.221 535.147C823.544 533.103 831.167 532.072 838.827 532.072H929.493C972.482 532.072 992.099 532.072 1002.84 542.676C1013.12 552.82 1013.1 570.936 1013.06 607.056V675.687C1013.08 721.086 975.602 758.016 929.512 758.016Z" fill="white"/>
<path d="M777.825 568.47L772.52 564.457C777.956 557.461 784.458 551.386 791.856 546.396L795.63 551.828C788.829 556.43 782.851 562.026 777.825 568.47Z" fill="white"/>
<path d="M985.166 887.368H834.528V766.341H985.166V887.368ZM841.217 880.777H978.496V772.914H841.217V880.777Z" fill="white"/>
<path d="M837.848 791.324H816.942V751.707H937.538V769.638H931.784V757.377H822.697V785.636H837.848V791.324Z" fill="white"/>
<path d="M1013.24 900.6H978.307V751.296H1013.24V900.6ZM985.331 893.696H1006.26V758.2H985.331V893.696Z" fill="white"/>
<path d="M1055.99 900.6H1021.05V751.296H1055.99V900.6ZM1028.06 893.696H1048.98V758.2H1028.06V893.696Z" fill="white"/>
<path d="M779.825 914.56H772.819V986.597H779.825V914.56Z" fill="white"/>
<path d="M739.871 915.468H732.865V930.785H739.871V915.468Z" fill="white"/>
<path d="M739.409 954.379H733.355V978.312H739.409V954.379Z" fill="white"/>
<path d="M826.929 531.922H814.692V518.169H819.643V527.043H821.979V518.519H826.929V531.922Z" fill="white"/>
<path d="M819.643 499.182H814.692V415.104H826.929V498.574H821.979V420.001H819.643V499.182Z" fill="white"/>
<path d="M1006.79 564.405H814.713V553.653H1006.79V564.405ZM819.626 559.563H1001.88V558.495H819.626V559.563Z" fill="white"/>
<path d="M1010.5 580.168H814.692V569.38H1010.5V580.168ZM819.643 575.29H1005.53V574.277H819.643V575.29Z" fill="white"/>
<path d="M765.814 1061.95H724.507V1068.86H765.814V1061.95Z" fill="white"/>
<path d="M875.864 1068.27H811.82V1062.54H874.855L961.86 995.384L965.447 999.895L877.658 1067.66C877.135 1068.07 876.499 1068.27 875.864 1068.27Z" fill="white"/>
<path d="M895.307 983.159H744.969V990.062H895.307V983.159Z" fill="white"/>
<path d="M934.667 1001.1C912.248 1001.1 894.014 983.136 894.014 961.045C894.014 938.953 912.248 920.985 934.667 920.985C957.086 920.985 975.32 938.953 975.32 961.045C975.32 983.136 957.086 1001.1 934.667 1001.1ZM934.667 927.87C916.115 927.87 901.02 942.745 901.02 961.026C901.02 979.307 916.115 994.182 934.667 994.182C953.219 994.182 968.314 979.307 968.314 961.026C968.314 942.745 953.219 927.87 934.667 927.87Z" fill="white"/>
<path d="M907.768 535.558C897.848 440.03 847.741 373.902 773.739 358.622L775.084 352.307C852.019 368.176 904.05 436.44 914.288 534.896L907.768 535.558Z" fill="white"/>
<path d="M319.057 932.326L288.511 888.953L313.228 872.052L343.774 915.444L319.057 932.326ZM296.656 890.388L320.533 924.281L335.628 913.953L311.752 880.042L296.656 890.388Z" fill="white"/>
<path d="M348.788 911.498L318.242 868.106L342.978 851.206L373.524 894.597L348.788 911.498ZM326.388 869.56L350.264 903.453L365.36 893.125L341.483 859.214L326.388 869.56Z" fill="white"/>
<path d="M318.726 916.772L300.978 891.551L374.96 840.96L378.847 846.502L310.506 893.245L320.464 907.383L384.115 863.862L388.001 869.404L318.726 916.772Z" fill="white"/>
<path d="M389.711 983.513L357.727 981.524L345.732 953.357L362.154 930.069L406.171 960.187L389.711 983.513ZM361.706 976.001L386.778 977.566L398.007 961.66L363.612 938.114L352.365 954.057L361.706 976.001Z" fill="white"/>
<path d="M409.431 954.798L365.434 924.679L382.603 900.323L426.619 930.442L409.431 954.798ZM373.579 923.225L407.974 946.771L418.473 931.896L384.079 908.35L373.579 923.225Z" fill="white"/>
<path d="M384.482 971.036L358.887 953.509L403.594 890.125L409.217 893.972L368.415 951.816L382.763 961.647L423.472 903.932L429.096 907.779L384.482 971.036Z" fill="white"/>
<path d="M679.06 733.278H673.212V924.428H679.06V733.278Z" fill="white"/>
<path d="M330.319 1401L249.181 1378.12L282.529 1263.32L363.668 1286.2L330.319 1401ZM258.092 1373.24L325.368 1392.22L354.756 1291.06L287.48 1272.08L258.092 1373.24Z" fill="white"/>
<path d="M337.736 1372.06L258.447 1349.7L276.719 1286.79L356.008 1309.16L337.736 1372.06ZM264.967 1346.13L334.112 1365.64L349.487 1312.73L280.343 1293.23L264.967 1346.13Z" fill="white"/>
<path d="M353.569 1365.43L233.664 1331.61L252.646 1314.07L245.957 1289.27L365.862 1323.09L353.569 1365.43ZM245.098 1328.87L349.571 1358.34L358.688 1326.99L254.215 1297.52L259.166 1315.87L245.098 1328.87Z" fill="white"/>
<path d="M826.27 1282.08L820.702 1278.91L858.59 1214.16C867.371 1199.14 865.409 1180.38 853.658 1167.46L722.096 1021.78L726.897 1017.57L858.46 1163.24C872.061 1178.19 874.34 1199.93 864.158 1217.33L826.27 1282.08Z" fill="white"/>
<path d="M847.873 1317.9L842.305 1314.74L901.155 1214.16C909.936 1199.14 907.975 1180.38 896.223 1167.46L721.803 966.662L726.679 962.539L901.043 1163.3C914.588 1178.21 916.886 1199.93 906.704 1217.33L847.873 1317.9Z" fill="white"/>
<path d="M355.79 557.026H344.524V562.751H355.79V557.026Z" fill="white"/>
<path d="M1051.27 273.006L1046.63 268.44L1072.96 242.501L946.963 118.345L926.262 138.743L921.629 134.177L946.963 109.213L1082.22 242.501L1051.27 273.006Z" fill="white"/>
<path d="M1049.1 218.319L962.689 133.855L990.975 105.982L1077.55 190.281L1049.1 218.319ZM971.956 133.837L1049.06 209.206L1068.25 190.299L990.993 115.077L971.956 133.837Z" fill="white"/>
<path d="M1089.86 211.55L966.479 89.9716L1008.31 48.752L1131.69 170.331L1089.86 211.55ZM975.745 89.9716L1089.86 202.419L1122.42 170.331L1008.31 57.8833L975.745 89.9716Z" fill="white"/>
<path d="M1117.9 165.9L1011.82 61.387L1028.23 45.2231L1134.31 149.754L1117.9 165.9ZM1021.11 61.3686L1117.92 156.768L1125.06 149.736L1028.24 54.336L1021.11 61.3686Z" fill="white"/>
<path d="M1160.78 123.53L1054.7 19.0174L1071.1 2.85352L1177.18 107.366L1160.78 123.53ZM1063.96 18.999L1160.78 114.399L1167.91 107.366L1071.1 11.9664L1063.96 18.999Z" fill="white"/>
<path d="M1101.74 126.764L1053.37 79.1009L1089.17 43.8276L1137.54 91.4907L1101.74 126.764ZM1062.64 79.1009L1101.74 117.633L1128.29 91.4907L1089.19 52.959L1062.64 79.1009Z" fill="white"/>
<path d="M1113.59 115.094L1065.22 67.4306L1078.2 54.6357L1126.57 102.299L1113.59 115.094ZM1074.48 67.4306L1113.59 105.962L1117.32 102.28L1078.22 63.7486L1074.48 67.4306Z" fill="white"/>
<path d="M1128.37 60.9233L1115.83 48.5702L1125.34 39.1997L1137.86 51.5342L1128.37 60.9233ZM1125.1 48.5702L1128.37 51.792L1128.61 51.5526L1125.34 48.3309L1125.1 48.5702Z" fill="white"/>
<path d="M1169.51 101.449L1156.97 89.0962L1166.48 79.7256L1179 92.0786L1169.51 101.449ZM1166.26 89.0962L1169.53 92.318L1169.77 92.0786L1166.5 88.8569L1166.26 89.0962Z" fill="white"/>
<path d="M1149.14 81.3793L1136.61 69.0263L1146.12 59.6558L1158.65 72.0087L1149.14 81.3793ZM1145.87 69.0263L1149.14 72.248L1149.39 72.0087L1146.12 68.787L1145.87 69.0263Z" fill="white"/>
<path d="M1108.68 41.5112L1096.14 29.1583L1105.65 19.7876L1118.19 32.1406L1108.68 41.5112ZM1105.42 29.1767L1108.69 32.3984L1108.94 32.1591L1105.67 28.9373L1105.42 29.1767Z" fill="white"/>
<path d="M1088.96 22.0664L1076.44 9.71343L1085.95 0.342773L1098.47 12.6958L1088.96 22.0664ZM1085.69 9.71343L1088.96 12.9351L1089.2 12.6958L1085.93 9.47409L1085.69 9.71343Z" fill="white"/>
<path d="M167.044 650.434H162.261V701.245H167.044V650.434Z" fill="white"/>
<path d="M142.379 0L139.483 0V71.5223H142.379V0Z" fill="white"/>
<path d="M237.476 1607.52C227.929 1591.52 219.205 1559.93 231.759 1500.3C337.391 1096.74 376.307 994.141 487.655 992.263L487.748 997.51C380.062 999.333 341.744 1101.12 236.953 1501.48C224.772 1559.36 233.011 1589.64 242.072 1604.85L237.476 1607.52Z" fill="white"/>
<path d="M288.331 1556.34C283.529 1534.45 284.65 1506.43 291.675 1473.05C384.808 1117.22 408.572 1066.39 487.319 1054.54L488.122 1059.73C412.421 1071.13 389.18 1121.48 296.869 1474.23C290.012 1506.76 288.891 1534.04 293.543 1555.23L288.331 1556.34Z" fill="white"/>
<path d="M817.454 1124.42L771.924 1210.04L778.312 1213.34L823.842 1127.72L817.454 1124.42Z" fill="white"/>
<path d="M843.191 1153.14L798.025 1245.03L804.516 1248.13L849.681 1156.24L843.191 1153.14Z" fill="white"/>
<path d="M838.19 1094.02L831.819 1090.69C831.913 1090.5 841.516 1072.65 842.861 1063.85L849.979 1064.9C848.466 1074.91 838.62 1093.25 838.19 1094.02Z" fill="white"/>
<path d="M865.544 1125.3L859.117 1122.1C866.964 1106.76 887.608 1064.31 889.009 1052.1L896.165 1052.89C894.315 1068.87 866.721 1123 865.544 1125.3Z" fill="white"/>
<path d="M244.403 1633.51L226.804 1616.16L292.94 1550.99L310.539 1568.34L244.403 1633.51ZM232.52 1616.16L244.403 1627.87L304.822 1568.34L292.94 1556.63L232.52 1616.16Z" fill="white"/>
<path d="M286.928 1664.31L247.452 1625.41L302.117 1571.52L315.176 1584.39L312.86 1586.68L302.117 1576.11L252.104 1625.41L289.245 1662.01L286.928 1664.31Z" fill="white"/>
<path d="M310.843 1582.43L258.49 1634.02L260.815 1636.31L313.168 1584.72L310.843 1582.43Z" fill="white"/>
<path d="M313.87 1585.32L261.524 1636.92L263.85 1639.21L316.195 1587.61L313.87 1585.32Z" fill="white"/>
<path d="M303.903 1575.59L251.55 1627.18L253.875 1629.47L306.228 1577.88L303.903 1575.59Z" fill="white"/>
<path d="M1016.72 961.616H842.506V964.47H1016.72V961.616Z" fill="white"/>
<path d="M936.109 882.198H933.213V1053.87H936.109V882.198Z" fill="white"/>
<path d="M884.81 959.978C884.287 958.634 871.378 927.282 821.906 927.282V921.556C875.563 921.556 889.668 956.461 890.247 957.934L884.81 959.978Z" fill="white"/>
<path d="M887.092 948.891C868.335 917.834 822.544 919.049 821.984 919.049L821.797 913.323C823.796 913.268 871.586 912.035 892.081 945.964L887.092 948.891Z" fill="white"/>
<path d="M956.341 1566.49H323.113C316.033 1566.49 310.26 1560.8 310.26 1553.83C310.26 1546.85 316.033 1541.16 323.113 1541.16H956.341C963.421 1541.16 969.194 1546.85 969.194 1553.83C969.194 1560.8 963.421 1566.49 956.341 1566.49ZM323.113 1547.42C319.526 1547.42 316.612 1550.29 316.612 1553.83C316.612 1557.36 319.526 1560.23 323.113 1560.23H956.341C959.928 1560.23 962.842 1557.36 962.842 1553.83C962.842 1550.29 959.928 1547.42 956.341 1547.42H323.113Z" fill="white"/>
<path d="M1007.14 228.666L920.301 133.359C899.862 110.935 858.275 116.293 836.136 135.881L832.101 131.444C856.818 109.573 901.712 104.032 924.804 129.382L1011.64 224.671L1007.14 228.666Z" fill="white"/>
<path d="M1023.64 237.859L1019.15 241.833L1029.57 253.269L1034.06 249.296L1023.64 237.859Z" fill="white"/>
<path d="M1058.57 495.793L1053.43 492.663L1106.94 407.72C1124.3 387.119 1123.68 356.541 1105.52 336.621L1041.42 266.277L1045.9 262.301L1110 332.645C1130.16 354.755 1130.82 388.684 1111.56 411.549L1058.57 495.793Z" fill="white"/>
<path d="M1044.02 507.454L1036.13 520.022L1041.27 523.163L1049.17 510.594L1044.02 507.454Z" fill="white"/>
<path d="M1025.93 536.456L1006.43 567.494L1011.56 570.624L1031.06 539.587L1025.93 536.456Z" fill="white"/>
<path d="M927.602 474.477L904.992 510.461L910.123 513.591L932.732 477.607L927.602 474.477Z" fill="white"/>
<path d="M945.636 446.174L937.424 459.243L942.554 462.373L950.766 449.304L945.636 446.174Z" fill="white"/>
<path d="M960.244 434.204L955.106 431.074C970.351 406.828 983.784 385.492 987.745 379.195C985.989 377.262 982.738 373.709 978.366 368.904L955.76 344.088L960.244 340.111L982.85 364.928C994.508 377.723 994.508 377.722 994.508 378.864L994.228 380.134C994.134 380.318 994.134 380.318 960.244 434.204Z" fill="white"/>
<path d="M937.596 315.043L933.106 319.016L943.817 330.768L948.307 326.795L937.596 315.043Z" fill="white"/>
<path d="M886.437 259.359L881.947 263.332L921.278 306.491L925.768 302.518L886.437 259.359Z" fill="white"/>
<path d="M801.373 351.139H784.484V345.193H801.373C816.487 345.193 830.369 335.564 838.477 319.456L839.187 318.554C841.447 316.271 866.613 281.182 881.932 259.624L886.883 263.03C877.748 275.917 848.659 316.768 843.708 322.457C834.516 340.425 818.711 351.139 801.373 351.139Z" fill="white"/>
<path d="M886.878 263.013L881.908 259.626L910.53 218.774C927.326 194.786 926.298 154.469 899.788 136.427L888.559 128.787C869.783 116.011 841.087 126.283 828.924 143.662L823.955 140.275C837.705 120.65 870.418 109.217 891.997 123.89L903.225 131.53C932.594 151.505 933.921 195.854 915.5 222.162L886.878 263.013Z" fill="white"/>
<path d="M823.992 140.492L755.585 238.088L760.55 241.467L828.957 143.871L823.992 140.492Z" fill="white"/>
<path d="M762.175 230.729H728.079V236.068H762.175V230.729Z" fill="white"/>
<path d="M924.626 331.468L908.597 314.31L1023.21 210.276L1039.24 227.434L924.626 331.468ZM916.798 314.642L924.981 323.386L1031.06 227.103L1022.88 218.358L916.798 314.642Z" fill="white"/>
<path d="M947.29 355.704L931.261 338.546L1045.88 234.512L1061.91 251.67L947.29 355.704ZM939.462 338.877L947.645 347.622L1053.73 251.338L1045.54 242.594L939.462 338.877Z" fill="white"/>
<path d="M1046.22 551.415L914.714 469.031L927.418 449.351L1058.92 531.735L1046.22 551.415ZM922.729 467.282L1044.43 543.535L1050.89 533.502L929.193 457.248L922.729 467.282Z" fill="white"/>
<path d="M1064.16 523.609L932.65 441.225L945.355 421.545L1076.86 503.929L1064.16 523.609ZM940.684 439.458L1062.38 515.712L1068.85 505.678L947.148 429.425L940.684 439.458Z" fill="white"/>
<path d="M467.612 843.553C463.203 843.553 458.831 842.448 454.87 840.294C448.686 836.925 444.221 831.403 442.26 824.72C440.298 818.037 441.101 811.004 444.52 804.929C447.939 798.836 453.544 794.436 460.326 792.503C467.089 790.588 474.244 791.379 480.41 794.73C486.594 798.099 491.059 803.622 493.02 810.305C494.982 816.988 494.179 824.02 490.76 830.095C487.341 836.189 481.736 840.589 474.954 842.522C472.525 843.222 470.059 843.553 467.612 843.553ZM467.668 797.436C465.762 797.436 463.857 797.694 461.989 798.228C456.757 799.719 452.423 803.106 449.807 807.801C447.173 812.496 446.557 817.908 448.07 823.063C449.583 828.218 453.04 832.489 457.785 835.066C462.549 837.662 468.042 838.269 473.273 836.797C478.504 835.305 482.82 831.9 485.454 827.223C490.89 817.54 487.303 805.297 477.476 799.94C474.431 798.283 471.068 797.436 467.668 797.436Z" fill="white"/>
<path d="M467.619 834.126C464.798 834.126 462.033 833.427 459.493 832.046C451.366 827.627 448.395 817.502 452.898 809.494C457.4 801.486 467.657 798.577 475.784 802.995C479.726 805.149 482.584 808.665 483.817 812.936C485.069 817.189 484.546 821.681 482.379 825.566C480.193 829.45 476.624 832.267 472.29 833.482C470.777 833.905 469.189 834.126 467.619 834.126ZM467.675 806.88C463.864 806.88 460.165 808.868 458.204 812.366C455.326 817.502 457.213 824.001 462.426 826.836C467.657 829.689 474.233 827.812 477.11 822.675C478.511 820.19 478.829 817.318 478.026 814.575C477.222 811.85 475.391 809.586 472.869 808.205C471.225 807.303 469.432 806.88 467.675 806.88Z" fill="white"/>
<path d="M492.475 807.519L462.994 791.465L524.852 681.154L555.398 695.311L492.475 807.519ZM471.215 789.127L490.121 799.419L547.01 697.962L527.412 688.886L471.215 789.127Z" fill="white"/>
<path d="M518.369 698.605L515.451 703.81L539.654 716.986L542.572 711.781L518.369 698.605Z" fill="white"/>
<path d="M496.125 738.406L493.207 743.611L517.409 756.787L520.328 751.582L496.125 738.406Z" fill="white"/>
<path d="M846.726 392.737L844.204 388.742C891.041 360.133 910.266 314.072 910.452 313.611L914.88 315.36C914.712 315.839 894.946 363.281 846.726 392.737Z" fill="white"/>
<path d="M863.36 410.033L860.95 405.965C912.066 376.509 935.214 317.781 935.438 317.192L939.903 318.868C939.679 319.494 915.914 379.749 863.36 410.033Z" fill="white"/>
<path d="M881.089 361.25L877.836 364.705L895.912 381.235L899.166 377.78L881.089 361.25Z" fill="white"/>
<path d="M888.551 352.967L885.274 356.4L903.213 373.021L906.489 369.588L888.551 352.967Z" fill="white"/>
<path d="M897.089 345.336L894.023 348.953L912.838 364.433L915.904 360.816L897.089 345.336Z" fill="white"/>
<path d="M230.594 471.698L229.39 476.259L261.805 484.574L263.01 480.013L230.594 471.698Z" fill="white"/>
<path d="M224.737 506.359L224.324 511.054L256.246 513.779L256.659 509.084L224.737 506.359Z" fill="white"/>
<path d="M257.215 536.913L224.129 541.842L224.844 546.503L257.93 541.573L257.215 536.913Z" fill="white"/>
<path d="M263.759 561.94L231.842 575.431L233.727 579.762L265.645 566.271L263.759 561.94Z" fill="white"/>
<path d="M279.38 584.387L249.631 605.741L252.447 609.551L282.196 588.196L279.38 584.387Z" fill="white"/>
<path d="M151.218 693.098C111.051 691.717 78.5433 676.382 62.0092 650.976C49.3238 631.462 47.4183 607.584 56.797 585.456C77.1609 537.425 152.377 387.163 153.143 385.654L157.421 387.734C156.674 389.244 81.514 539.376 61.206 587.278C52.4439 607.953 54.2 630.247 66.026 648.436C81.7007 672.516 112.807 687.078 151.368 688.385L151.218 693.098Z" fill="white"/>
<path d="M151.175 664.59C125.561 663.228 103.03 654.336 90.9236 640.805C82.6659 631.582 78.9669 620.388 79.8824 607.538C80.8352 594.357 166.756 421.93 176.546 402.324L180.824 404.404C142.525 481.118 85.3188 598.61 84.6463 607.888C83.8056 619.449 87.1311 629.464 94.492 637.712C105.776 650.323 127.056 658.607 151.418 659.914L151.175 664.59Z" fill="white"/>
<path d="M971.481 357.454L886.283 449.598L891.131 453.95L976.328 361.806L971.481 357.454Z" fill="white"/>
<path d="M1010.44 693.928L1005.72 689.454L1141.33 550.663C1152.92 538.807 1152.8 520.341 1141.09 508.633L1082.76 450.255L1087.43 445.727L1145.76 504.122C1159.98 518.353 1160.11 540.776 1146.04 555.154L1010.44 693.928Z" fill="white"/>
<path d="M1012.18 670.503L1007.45 666.029L1126.57 544.101C1134.55 535.927 1134.47 523.187 1126.4 515.106L1074.41 463.042L1079.08 458.514L1131.07 510.577C1141.65 521.181 1141.76 537.86 1131.3 548.575L1012.18 670.503Z" fill="white"/>
<path d="M1012.1 652.186L1007.38 647.712L1105.97 546.808C1115.44 537.106 1115.36 522.01 1105.78 512.419L1067.65 474.255L1072.32 469.726L1110.45 507.89C1122.54 519.985 1122.65 539.058 1110.69 551.282L1012.1 652.186Z" fill="white"/>
<path d="M828.792 1271.51L825.732 1276.63L857.502 1295.05L860.563 1289.92L828.792 1271.51Z" fill="white"/>
<path d="M855.264 1223.98L852.204 1229.11L883.974 1247.53L887.034 1242.4L855.264 1223.98Z" fill="white"/>
<path d="M850.723 1236.42L847.662 1241.54L879.429 1259.97L882.489 1254.84L850.723 1236.42Z" fill="white"/>
<path d="M839.288 1250.64L836.228 1255.76L867.994 1274.18L871.055 1269.06L839.288 1250.64Z" fill="white"/>
<path d="M403.699 488.107H397.011V541.072H403.699V488.107Z" fill="white"/>
<path d="M778.833 940.171L774.149 944.876L819.703 988.898L824.387 984.192L778.833 940.171Z" fill="white"/>
<path d="M812.721 927.225L808.146 932.033L869.79 988.988L874.365 984.18L812.721 927.225Z" fill="white"/>
<path d="M793.937 397.133H774.582V402.859H793.937V397.133Z" fill="white"/>
<path d="M355.799 780.933H343.842V786.179H355.799V780.933Z" fill="white"/>
<path d="M577.058 914.56H571.733V931.294H577.058V914.56Z" fill="white"/>
<path d="M1087.42 816.596H1031.85V818.418H1087.42V816.596Z" fill="white"/>
<path d="M762.187 634.088L762.112 627.626L1008.39 624.994L1090.65 540.787C1096.83 534.454 1096.77 524.568 1090.51 518.309L1059.45 487.196L1064.12 482.667L1095.19 513.78C1103.95 522.562 1104.04 536.387 1095.35 545.261L1012.14 630.443C1011.54 631.069 1010.7 631.419 1009.82 631.437L762.187 634.088Z" fill="white"/>
<path d="M331.539 1596.92C325.729 1596.92 321.021 1592.26 321.021 1586.55C321.021 1580.85 325.747 1576.19 331.539 1576.19C337.349 1576.19 342.057 1580.85 342.057 1586.55C342.057 1592.26 337.349 1596.92 331.539 1596.92ZM331.539 1581.92C328.942 1581.92 326.812 1584 326.812 1586.57C326.812 1589.13 328.923 1591.21 331.539 1591.21C334.136 1591.21 336.247 1589.13 336.247 1586.57C336.266 1584 334.136 1581.92 331.539 1581.92Z" fill="white"/>
<path d="M432.39 1596.42C426.58 1596.42 421.872 1591.77 421.872 1586.06C421.872 1580.35 426.599 1575.69 432.39 1575.69C438.201 1575.69 442.909 1580.35 442.909 1586.06C442.909 1591.77 438.201 1596.42 432.39 1596.42ZM432.39 1581.4C429.793 1581.4 427.664 1583.48 427.664 1586.06C427.664 1588.64 429.775 1590.72 432.39 1590.72C434.987 1590.72 437.117 1588.64 437.117 1586.06C437.117 1583.48 435.006 1581.4 432.39 1581.4Z" fill="white"/>
<path d="M533.26 1595.92C527.449 1595.92 522.741 1591.26 522.741 1585.56C522.741 1579.85 527.468 1575.19 533.26 1575.19C539.07 1575.19 543.778 1579.85 543.778 1585.56C543.778 1591.26 539.051 1595.92 533.26 1595.92ZM533.26 1580.9C530.663 1580.9 528.552 1582.98 528.552 1585.56C528.552 1588.12 530.663 1590.21 533.26 1590.21C535.856 1590.21 537.986 1588.13 537.986 1585.56C537.968 1583 535.856 1580.9 533.26 1580.9Z" fill="white"/>
<path d="M634.104 1595.43C628.294 1595.43 623.586 1590.77 623.586 1585.07C623.586 1579.36 628.313 1574.7 634.104 1574.7C639.915 1574.7 644.622 1579.36 644.622 1585.07C644.622 1590.77 639.915 1595.43 634.104 1595.43ZM634.104 1580.41C631.507 1580.41 629.377 1582.49 629.377 1585.07C629.377 1587.62 631.489 1589.72 634.104 1589.72C636.701 1589.72 638.831 1587.64 638.831 1585.07C638.831 1582.51 636.701 1580.41 634.104 1580.41Z" fill="white"/>
<path d="M734.953 1594.93C729.143 1594.93 724.435 1590.27 724.435 1584.57C724.435 1578.86 729.161 1574.2 734.953 1574.2C740.763 1574.2 745.471 1578.86 745.471 1584.57C745.471 1590.27 740.763 1594.93 734.953 1594.93ZM734.953 1579.91C732.356 1579.91 730.226 1581.99 730.226 1584.55C730.226 1587.11 732.337 1589.21 734.953 1589.21C737.55 1589.21 739.679 1587.13 739.679 1584.55C739.679 1582.01 737.568 1579.91 734.953 1579.91Z" fill="white"/>
<path d="M835.817 1594.44C830.007 1594.44 825.299 1589.78 825.299 1584.08C825.299 1578.37 830.026 1573.71 835.817 1573.71C841.609 1573.71 846.335 1578.37 846.335 1584.08C846.335 1589.78 841.609 1594.44 835.817 1594.44ZM835.817 1579.42C833.22 1579.42 831.109 1581.5 831.109 1584.08C831.109 1586.63 833.22 1588.73 835.817 1588.73C838.414 1588.73 840.544 1586.65 840.544 1584.08C840.525 1581.5 838.414 1579.42 835.817 1579.42Z" fill="white"/>
<path d="M936.679 1593.94C930.869 1593.94 926.161 1589.28 926.161 1583.58C926.161 1577.85 930.888 1573.21 936.679 1573.21C942.471 1573.21 947.198 1577.87 947.198 1583.58C947.198 1589.28 942.471 1593.94 936.679 1593.94ZM936.679 1578.92C934.083 1578.92 931.953 1581 931.953 1583.58C931.953 1586.14 934.064 1588.23 936.679 1588.23C939.276 1588.23 941.406 1586.15 941.406 1583.58C941.388 1581 939.276 1578.92 936.679 1578.92Z" fill="white"/>
<path d="M936.679 1593.94C930.869 1593.94 926.161 1589.28 926.161 1583.58C926.161 1577.85 930.888 1573.21 936.679 1573.21C942.471 1573.21 947.198 1577.87 947.198 1583.58C947.198 1589.28 942.471 1593.94 936.679 1593.94ZM936.679 1578.92C934.083 1578.92 931.953 1581 931.953 1583.58C931.953 1586.14 934.064 1588.23 936.679 1588.23C939.276 1588.23 941.406 1586.15 941.406 1583.58C941.388 1581 939.276 1578.92 936.679 1578.92Z" fill="white"/>
<path d="M392.561 1439.75C386.751 1439.75 382.043 1435.09 382.043 1429.39C382.043 1423.66 386.77 1419.02 392.561 1419.02C398.372 1419.02 403.08 1423.68 403.08 1429.39C403.08 1435.09 398.353 1439.75 392.561 1439.75ZM392.561 1424.73C389.964 1424.73 387.853 1426.81 387.853 1429.39C387.853 1431.95 389.964 1434.04 392.561 1434.04C395.158 1434.04 397.288 1431.96 397.288 1429.39C397.269 1426.81 395.158 1424.73 392.561 1424.73Z" fill="white"/>
<path d="M491.012 1439.75C485.202 1439.75 480.494 1435.09 480.494 1429.39C480.494 1423.66 485.221 1419.02 491.012 1419.02C496.823 1419.02 501.531 1423.68 501.531 1429.39C501.531 1435.09 496.804 1439.75 491.012 1439.75ZM491.012 1424.73C488.416 1424.73 486.286 1426.81 486.286 1429.39C486.286 1431.95 488.397 1434.04 491.012 1434.04C493.609 1434.04 495.739 1431.96 495.739 1429.39C495.721 1426.81 493.609 1424.73 491.012 1424.73Z" fill="white"/>
<path d="M589.477 1439.75C583.667 1439.75 578.959 1435.09 578.959 1429.39C578.959 1423.66 583.686 1419.02 589.477 1419.02C595.287 1419.02 599.995 1423.68 599.995 1429.39C599.995 1435.09 595.269 1439.75 589.477 1439.75ZM589.477 1424.73C586.88 1424.73 584.75 1426.81 584.75 1429.39C584.75 1431.95 586.862 1434.04 589.477 1434.04C592.074 1434.04 594.204 1431.96 594.204 1429.39C594.185 1426.81 592.074 1424.73 589.477 1424.73Z" fill="white"/>
<path d="M687.926 1439.75C682.115 1439.75 677.407 1435.09 677.407 1429.39C677.407 1423.66 682.134 1419.02 687.926 1419.02C693.736 1419.02 698.444 1423.68 698.444 1429.39C698.444 1435.09 693.717 1439.75 687.926 1439.75ZM687.926 1424.73C685.329 1424.73 683.217 1426.81 683.217 1429.39C683.217 1431.95 685.329 1434.04 687.926 1434.04C690.522 1434.04 692.652 1431.96 692.652 1429.39C692.634 1426.81 690.522 1424.73 687.926 1424.73Z" fill="white"/>
<path d="M786.375 1439.75C780.564 1439.75 775.856 1435.09 775.856 1429.39C775.856 1423.66 780.583 1419.02 786.375 1419.02C792.185 1419.02 796.893 1423.68 796.893 1429.39C796.893 1435.09 792.166 1439.75 786.375 1439.75ZM786.375 1424.73C783.778 1424.73 781.667 1426.81 781.667 1429.39C781.667 1431.95 783.778 1434.04 786.375 1434.04C788.972 1434.04 791.102 1431.96 791.102 1429.39C791.083 1426.81 788.972 1424.73 786.375 1424.73Z" fill="white"/>
<path d="M884.848 1439.75C879.038 1439.75 874.33 1435.09 874.33 1429.39C874.33 1423.66 879.057 1419.02 884.848 1419.02C890.64 1419.02 895.366 1423.68 895.366 1429.39C895.366 1435.09 890.64 1439.75 884.848 1439.75ZM884.848 1424.73C882.251 1424.73 880.122 1426.81 880.122 1429.39C880.122 1431.95 882.233 1434.04 884.848 1434.04C887.445 1434.04 889.575 1431.96 889.575 1429.39C889.556 1426.81 887.445 1424.73 884.848 1424.73Z" fill="white"/>
<path d="M284.748 1753.98C278.938 1753.98 274.229 1749.33 274.229 1743.62C274.229 1737.89 278.956 1733.25 284.748 1733.25C290.558 1733.25 295.266 1737.91 295.266 1743.62C295.266 1749.33 290.539 1753.98 284.748 1753.98ZM284.748 1738.96C282.151 1738.96 280.04 1741.04 280.04 1743.62C280.04 1746.18 282.151 1748.28 284.748 1748.28C287.345 1748.28 289.474 1746.2 289.474 1743.62C289.456 1741.06 287.345 1738.96 284.748 1738.96Z" fill="white"/>
<path d="M386.232 1753.98C380.422 1753.98 375.714 1749.33 375.714 1743.62C375.714 1737.89 380.441 1733.25 386.232 1733.25C392.042 1733.25 396.75 1737.91 396.75 1743.62C396.75 1749.33 392.042 1753.98 386.232 1753.98ZM386.232 1738.96C383.635 1738.96 381.524 1741.04 381.524 1743.62C381.524 1746.18 383.635 1748.28 386.232 1748.28C388.829 1748.28 390.959 1746.2 390.959 1743.62C390.959 1741.06 388.829 1738.96 386.232 1738.96Z" fill="white"/>
<path d="M487.711 1753.98C481.9 1753.98 477.192 1749.33 477.192 1743.62C477.192 1737.89 481.919 1733.25 487.711 1733.25C493.521 1733.25 498.229 1737.91 498.229 1743.62C498.248 1749.33 493.521 1753.98 487.711 1753.98ZM487.711 1738.96C485.114 1738.96 483.003 1741.04 483.003 1743.62C483.003 1746.18 485.114 1748.28 487.711 1748.28C490.308 1748.28 492.437 1746.2 492.437 1743.62C492.437 1741.06 490.326 1738.96 487.711 1738.96Z" fill="white"/>
<path d="M589.213 1753.98C583.402 1753.98 578.694 1749.33 578.694 1743.62C578.694 1737.89 583.421 1733.25 589.213 1733.25C595.023 1733.25 599.731 1737.91 599.731 1743.62C599.731 1749.33 595.023 1753.98 589.213 1753.98ZM589.213 1738.96C586.616 1738.96 584.505 1741.04 584.505 1743.62C584.505 1746.18 586.616 1748.28 589.213 1748.28C591.81 1748.28 593.939 1746.2 593.939 1743.62C593.921 1741.06 591.81 1738.96 589.213 1738.96Z" fill="white"/>
<path d="M690.694 1753.98C684.884 1753.98 680.176 1749.33 680.176 1743.62C680.176 1737.89 684.902 1733.25 690.694 1733.25C696.504 1733.25 701.212 1737.91 701.212 1743.62C701.212 1749.33 696.504 1753.98 690.694 1753.98ZM690.694 1738.96C688.097 1738.96 685.967 1741.04 685.967 1743.62C685.967 1746.18 688.079 1748.28 690.694 1748.28C693.291 1748.28 695.402 1746.2 695.402 1743.62C695.421 1741.06 693.291 1738.96 690.694 1738.96Z" fill="white"/>
<path d="M792.205 1753.98C786.395 1753.98 781.687 1749.33 781.687 1743.62C781.687 1737.89 786.413 1733.25 792.205 1733.25C797.996 1733.25 802.723 1737.91 802.723 1743.62C802.723 1749.33 797.996 1753.98 792.205 1753.98ZM792.205 1738.96C789.608 1738.96 787.478 1741.04 787.478 1743.62C787.478 1746.18 789.589 1748.28 792.205 1748.28C794.802 1748.28 796.913 1746.2 796.913 1743.62C796.913 1741.06 794.802 1738.96 792.205 1738.96Z" fill="white"/>
<path d="M893.686 1753.98C887.876 1753.98 883.168 1749.33 883.168 1743.62C883.168 1737.89 887.895 1733.25 893.686 1733.25C899.497 1733.25 904.205 1737.91 904.205 1743.62C904.205 1749.33 899.497 1753.98 893.686 1753.98ZM893.686 1738.96C891.089 1738.96 888.96 1741.04 888.96 1743.62C888.96 1746.18 891.071 1748.28 893.686 1748.28C896.283 1748.28 898.394 1746.2 898.394 1743.62C898.394 1741.06 896.283 1738.96 893.686 1738.96Z" fill="white"/>
<path d="M995.172 1753.98C989.361 1753.98 984.653 1749.33 984.653 1743.62C984.653 1737.89 989.38 1733.25 995.172 1733.25C1000.96 1733.25 1005.69 1737.91 1005.69 1743.62C1005.69 1749.33 1000.96 1753.98 995.172 1753.98ZM995.172 1738.96C992.575 1738.96 990.445 1741.04 990.445 1743.62C990.445 1746.18 992.556 1748.28 995.172 1748.28C997.769 1748.28 999.88 1746.2 999.88 1743.62C999.88 1741.06 997.769 1738.96 995.172 1738.96Z" fill="white"/>
<path d="M983.884 438.517C978.073 438.517 973.365 433.859 973.365 428.152C973.365 422.427 978.092 417.788 983.884 417.788C989.694 417.788 994.402 422.445 994.402 428.152C994.402 433.859 989.675 438.517 983.884 438.517ZM983.884 423.495C981.287 423.495 979.175 425.575 979.175 428.134C979.175 430.693 981.287 432.792 983.884 432.792C986.48 432.792 988.61 430.711 988.61 428.134C988.592 425.575 986.48 423.495 983.884 423.495Z" fill="white"/>
<path d="M1016.53 458.328C1010.72 458.328 1006.02 453.67 1006.02 447.963C1006.02 442.238 1010.74 437.599 1016.53 437.599C1022.33 437.599 1027.05 442.256 1027.05 447.963C1027.05 453.67 1022.33 458.328 1016.53 458.328ZM1016.53 443.306C1013.94 443.306 1011.81 445.386 1011.81 447.945C1011.81 450.504 1013.92 452.603 1016.53 452.603C1019.13 452.603 1021.26 450.522 1021.26 447.945C1021.24 445.404 1019.13 443.306 1016.53 443.306Z" fill="white"/>
<path d="M1046.58 476.63C1040.77 476.63 1036.06 471.972 1036.06 466.265C1036.06 460.54 1040.79 455.9 1046.58 455.9C1052.37 455.9 1057.1 460.558 1057.1 466.265C1057.12 471.972 1052.39 476.63 1046.58 476.63ZM1046.58 461.608C1043.99 461.608 1041.86 463.688 1041.86 466.247C1041.86 468.806 1043.97 470.904 1046.58 470.904C1049.18 470.904 1051.31 468.824 1051.31 466.247C1051.31 463.688 1049.2 461.608 1046.58 461.608Z" fill="white"/>
<path d="M331.528 293.271C325.718 293.271 321.01 288.613 321.01 282.906C321.01 277.18 325.736 272.541 331.528 272.541C337.338 272.541 342.046 277.199 342.046 282.906C342.046 288.631 337.338 293.271 331.528 293.271ZM331.528 278.266C328.931 278.266 326.801 280.347 326.801 282.906C326.801 285.465 328.913 287.564 331.528 287.564C334.125 287.564 336.236 285.483 336.236 282.906C336.255 280.347 334.125 278.266 331.528 278.266Z" fill="white"/>
<path d="M331.528 337.872C325.718 337.872 321.01 333.214 321.01 327.507C321.01 321.782 325.736 317.143 331.528 317.143C337.338 317.143 342.046 321.8 342.046 327.507C342.046 333.233 337.338 337.872 331.528 337.872ZM331.528 322.85C328.931 322.85 326.801 324.93 326.801 327.507C326.801 330.066 328.913 332.165 331.528 332.165C334.125 332.165 336.236 330.085 336.236 327.507C336.255 324.948 334.125 322.85 331.528 322.85Z" fill="white"/>
<path d="M331.528 382.488C325.718 382.488 321.01 377.83 321.01 372.123C321.01 366.398 325.736 361.758 331.528 361.758C337.338 361.758 342.046 366.416 342.046 372.123C342.046 377.83 337.338 382.488 331.528 382.488ZM331.528 367.465C328.931 367.465 326.801 369.546 326.801 372.105C326.801 374.664 328.913 376.762 331.528 376.762C334.125 376.762 336.236 374.682 336.236 372.105C336.255 369.546 334.125 367.465 331.528 367.465Z" fill="white"/>
<path d="M331.528 427.094C325.718 427.094 321.01 422.437 321.01 416.729C321.01 411.022 325.736 406.365 331.528 406.365C337.338 406.365 342.046 411.022 342.046 416.729C342.046 422.437 337.338 427.094 331.528 427.094ZM331.528 412.072C328.931 412.072 326.801 414.152 326.801 416.729C326.801 419.288 328.913 421.387 331.528 421.387C334.125 421.387 336.236 419.307 336.236 416.729C336.255 414.152 334.125 412.072 331.528 412.072Z" fill="white"/>
<path d="M331.528 471.685C325.718 471.685 321.01 467.027 321.01 461.32C321.01 455.594 325.736 450.955 331.528 450.955C337.338 450.955 342.046 455.613 342.046 461.32C342.046 467.045 337.338 471.685 331.528 471.685ZM331.528 456.681C328.931 456.681 326.801 458.761 326.801 461.338C326.801 463.897 328.913 465.978 331.528 465.978C334.125 465.978 336.236 463.897 336.236 461.338C336.255 458.761 334.125 456.681 331.528 456.681Z" fill="white"/>
<path d="M887.049 1017.88C881.238 1017.88 876.53 1013.23 876.53 1007.52C876.53 1001.81 881.257 997.154 887.049 997.154C892.84 997.154 897.567 1001.81 897.567 1007.52C897.567 1013.23 892.84 1017.88 887.049 1017.88ZM887.049 1002.86C884.452 1002.86 882.322 1004.94 882.322 1007.52C882.322 1010.08 884.433 1012.18 887.049 1012.18C889.645 1012.18 891.775 1010.1 891.775 1007.52C891.757 1004.94 889.645 1002.86 887.049 1002.86Z" fill="white"/>
<path d="M477.973 1293.73C472.163 1293.73 467.455 1289.07 467.455 1283.37C467.455 1277.64 472.182 1273 477.973 1273C483.784 1273 488.492 1277.66 488.492 1283.37C488.51 1289.07 483.784 1293.73 477.973 1293.73ZM477.973 1278.71C475.376 1278.71 473.265 1280.79 473.265 1283.37C473.265 1285.93 475.376 1288.02 477.973 1288.02C480.57 1288.02 482.7 1285.94 482.7 1283.37C482.7 1280.79 480.57 1278.71 477.973 1278.71Z" fill="white"/>
<path d="M559.856 1293.73C554.046 1293.73 549.338 1289.07 549.338 1283.37C549.338 1277.64 554.065 1273 559.856 1273C565.666 1273 570.374 1277.66 570.374 1283.37C570.393 1289.07 565.666 1293.73 559.856 1293.73ZM559.856 1278.71C557.259 1278.71 555.148 1280.79 555.148 1283.37C555.148 1285.93 557.259 1288.02 559.856 1288.02C562.453 1288.02 564.583 1285.94 564.583 1283.37C564.583 1280.79 562.472 1278.71 559.856 1278.71Z" fill="white"/>
<path d="M641.776 1293.73C635.966 1293.73 631.258 1289.07 631.258 1283.37C631.258 1277.64 635.984 1273 641.776 1273C647.586 1273 652.294 1277.66 652.294 1283.37C652.294 1289.07 647.568 1293.73 641.776 1293.73ZM641.776 1278.71C639.179 1278.71 637.049 1280.79 637.049 1283.37C637.049 1285.93 639.16 1288.02 641.776 1288.02C644.373 1288.02 646.502 1285.94 646.502 1283.37C646.484 1280.79 644.373 1278.71 641.776 1278.71Z" fill="white"/>
<path d="M723.645 1293.73C717.835 1293.73 713.127 1289.07 713.127 1283.37C713.127 1277.64 717.854 1273 723.645 1273C729.456 1273 734.164 1277.66 734.164 1283.37C734.182 1289.07 729.456 1293.73 723.645 1293.73ZM723.645 1278.71C721.048 1278.71 718.918 1280.79 718.918 1283.37C718.918 1285.93 721.03 1288.02 723.645 1288.02C726.242 1288.02 728.372 1285.94 728.372 1283.37C728.372 1280.79 726.261 1278.71 723.645 1278.71Z" fill="white"/>
<path d="M805.549 1293.73C799.738 1293.73 795.03 1289.07 795.03 1283.37C795.03 1277.64 799.757 1273 805.549 1273C811.34 1273 816.067 1277.66 816.067 1283.37C816.067 1289.07 811.34 1293.73 805.549 1293.73ZM805.549 1278.71C802.952 1278.71 800.822 1280.79 800.822 1283.37C800.822 1285.93 802.933 1288.02 805.549 1288.02C808.145 1288.02 810.275 1285.94 810.275 1283.37C810.257 1280.79 808.145 1278.71 805.549 1278.71Z" fill="white"/>
<path d="M1051.28 586.669L1047.27 590.81L1058.29 601.184L1062.31 597.043L1051.28 586.669Z" fill="white"/>
<path d="M1077.01 559.778L1073 563.919L1084.03 574.291L1088.04 570.149L1077.01 559.778Z" fill="white"/>
<path d="M1025.1 615.229L1021.09 619.371L1032.11 629.744L1036.13 625.602L1025.1 615.229Z" fill="white"/>
<path d="M1051.35 627.749L1047.33 631.891L1058.36 642.264L1062.37 638.122L1051.35 627.749Z" fill="white"/>
<path d="M1076.73 600.859L1072.72 605L1083.74 615.375L1087.75 611.234L1076.73 600.859Z" fill="white"/>
<path d="M1103.79 571.781L1099.78 575.921L1110.8 586.296L1114.81 582.155L1103.79 571.781Z" fill="white"/>
<path d="M1129.77 542.688L1125.76 546.83L1136.79 557.203L1140.8 553.061L1129.77 542.688Z" fill="white"/>
<path d="M1024.86 656.349L1020.85 660.49L1031.87 670.866L1035.88 666.725L1024.86 656.349Z" fill="white"/>
<path d="M1147.28 511.299L1135.81 521.187L1139.63 525.498L1151.11 515.61L1147.28 511.299Z" fill="white"/>
<path d="M1120.07 482.142L1108.59 492.028L1112.42 496.339L1123.9 486.452L1120.07 482.142Z" fill="white"/>
<path d="M1093.22 454.249L1081.74 464.137L1085.57 468.448L1097.04 458.56L1093.22 454.249Z" fill="white"/>
<path d="M1094.53 499.138L1083.05 509.026L1086.88 513.337L1098.36 503.449L1094.53 499.138Z" fill="white"/>
<path d="M1082.8 483.355L1071.31 493.235L1075.13 497.548L1086.62 487.668L1082.8 483.355Z" fill="white"/>
<path d="M1099.01 532.448L1097.83 538.054L1112.76 541.101L1113.94 535.494L1099.01 532.448Z" fill="white"/>
<path d="M443.699 1042.82L442.242 1040.34C463.802 1028.04 489.079 1023.2 524.203 1024.56L524.091 1027.41C489.565 1026.05 464.755 1030.8 443.699 1042.82Z" fill="white"/>
<path d="M274.978 1454.72L272.157 1454C290.522 1384.3 303.226 1337.57 314.66 1297.74L317.462 1298.51C306.047 1338.33 293.343 1385.05 274.978 1454.72ZM336.014 1236.52L333.249 1235.68C355.893 1163.68 375.229 1117.6 395.911 1086.3L398.339 1087.86C377.807 1118.92 358.583 1164.76 336.014 1236.52Z" fill="white"/>
<path d="M279.499 1595.59C278.172 1593.37 276.566 1591.01 274.866 1588.54C265.543 1574.9 252.801 1556.23 257.192 1517.35L260.088 1517.67C255.809 1555.52 268.215 1573.69 277.276 1586.96C278.995 1589.48 280.62 1591.86 282.002 1594.16L279.499 1595.59Z" fill="white"/>
<path d="M834.607 850.96H750.685V830.212H834.607V834.575H755.131V846.578H834.607V850.96Z" fill="white"/>
<path d="M762.593 832.388H758.165V848.773H762.593V832.388Z" fill="white"/>
<path d="M787.175 851.623H768.979V829.513H787.175V851.623ZM774.789 845.916H781.365V835.257H774.789V845.916Z" fill="white"/>
<path d="M834.609 875.6H750.687V854.833H834.609V859.215H755.133V871.218H834.609V875.6Z" fill="white"/>
<path d="M762.594 857.025H758.166V873.41H762.594V857.025Z" fill="white"/>
<path d="M787.176 876.286H768.979V854.176H787.176V876.286ZM774.79 870.561H781.366V859.902H774.79V870.561Z" fill="white"/>
<path d="M907.602 728.249H854.543V732.962H907.602V728.249Z" fill="white"/>
<path d="M906.107 715.79H854.543V720.503H906.107V715.79Z" fill="white"/>
<path d="M910.261 759.359H851.878V694.023H910.261V759.359ZM857.202 754.113H904.918V699.288H857.202V754.113Z" fill="white"/>
<path d="M906.107 741.233H854.543V745.946H906.107V741.233Z" fill="white"/>
<path d="M96.412 509.074L94.2197 513.875L120.388 525.478L122.58 520.677L96.412 509.074Z" fill="white"/>
<path d="M114.734 464.003L112.542 468.805L138.713 480.407L140.905 475.606L114.734 464.003Z" fill="white"/>
<path d="M111.44 475.574L109.248 480.375L135.419 491.975L137.611 487.173L111.44 475.574Z" fill="white"/>
<path d="M90.6 520.488L88.4082 525.29L114.579 536.889L116.771 532.088L90.6 520.488Z" fill="white"/>
</g>
</svg>
