<svg width="25" height="25" viewBox="0 0 25 25" fill="none" xmlns="http://www.w3.org/2000/svg">
<path fill-rule="evenodd" clip-rule="evenodd" d="M12.5 25C19.4036 25 25 19.4036 25 12.5C25 5.59644 19.4036 0 12.5 0C5.59644 0 0 5.59644 0 12.5C0 19.4036 5.59644 25 12.5 25ZM9.97336 20.1088C9.97336 20.2863 9.89472 20.4796 9.7018 20.5684C10.5856 20.8489 11.5256 21 12.5004 21C13.4729 21 14.4107 20.8496 15.2927 20.5704C15.1024 20.4821 15.0278 20.2909 15.0278 20.115C15.0278 20.0033 15.0292 19.8084 15.031 19.5481L15.031 19.5474C15.0347 19.0238 15.0403 18.236 15.0403 17.3287C15.0403 16.3812 14.7087 15.7578 14.3459 15.4461C16.6167 15.1906 19 14.3366 19 10.4344C19 9.32486 18.6059 8.42101 17.9553 7.71039C18.0617 7.45482 18.412 6.42006 17.8552 5.02376C17.8552 5.02376 16.9983 4.74948 15.0528 6.06475C14.2396 5.84034 13.3638 5.72814 12.5006 5.72191C11.6311 5.72814 10.7615 5.84034 9.94834 6.06475C8.00289 4.74948 7.14589 5.02376 7.14589 5.02376C6.59541 6.42006 6.94571 7.44858 7.05206 7.71039C6.39523 8.42101 6.00114 9.32486 6.00114 10.4344C6.00114 14.3241 8.37822 15.1968 10.6364 15.4461C10.3487 15.7017 10.086 16.1505 9.99213 16.805C9.41037 17.0669 7.93408 17.5157 7.02704 15.9635C7.02704 15.9635 6.48281 14.9911 5.46317 14.9163C5.46317 14.9163 4.46855 14.9038 5.39436 15.5334C5.39436 15.5334 6.06369 15.8513 6.5266 17.0232C6.5266 17.0232 7.12712 18.993 9.96085 18.3821C9.96309 18.6861 9.96534 18.9629 9.96729 19.2041C9.97079 19.6354 9.97336 19.9529 9.97336 20.1088Z" fill="white" fill-opacity="0.3"/>
</svg>
