<svg width="150" height="28" viewBox="0 0 150 28" fill="none" xmlns="http://www.w3.org/2000/svg">
    <path d="M11.3303 0C4.92093 0 0 4.73942 0 11.0379C0 17.3051 4.92093 22.1381 11.3303 22.1381C17.7396 22.1381 22.6606 17.3051 22.6606 11.0379C22.6606 4.7706 17.7396 0 11.3303 0ZM11.391 3.74165C15.2792 3.74165 18.499 6.92205 18.499 11.0379C18.499 15.1537 15.2792 18.3964 11.391 18.3964C7.47252 18.3964 4.16153 15.1537 4.16153 11.0379C4.16153 6.92205 7.44214 3.74165 11.391 3.74165Z" fill="#0030AE"/>
    <path d="M35.6492 5.14477C33.8267 5.14477 32.3118 5.7235 31.1812 6.78889C30.8439 7.10682 30.1815 6.88153 30.1815 6.41142V5.74073C30.1815 5.48047 29.976 5.26949 29.7224 5.26949H26.6917C26.4382 5.26949 26.2326 5.48047 26.2326 5.74073V27.5288C26.2326 27.789 26.4382 28 26.6917 28H29.7224C29.976 28 30.1815 27.789 30.1815 27.5288V20.8058C30.1815 20.3386 30.8312 20.1152 31.166 20.4316C32.3145 21.5169 33.8468 22.1069 35.71 22.1069C40.3271 22.1069 43.3344 18.7082 43.3344 13.6882C43.3344 8.57461 40.236 5.14477 35.6492 5.14477ZM34.7683 18.6147C32.0648 18.6147 30.1815 16.5568 30.1815 13.5635C30.1815 10.6325 32.0648 8.54343 34.7683 8.54343C37.4414 8.54343 39.3247 10.6325 39.3247 13.5635C39.3247 16.5256 37.4414 18.6147 34.7683 18.6147Z" fill="#0030AE"/>
    <path d="M53.5305 5.14477C48.6703 5.14477 45.2682 8.57461 45.2682 13.657C45.2682 18.6771 48.5792 22.1069 53.6217 22.1069C56.3055 22.1069 58.56 21.1703 60.1581 19.5559C60.3304 19.3818 60.3262 19.0991 60.1588 18.9199L58.6587 17.314C58.479 17.1216 58.1807 17.1219 57.9856 17.2978C56.8761 18.2982 55.4656 18.833 53.9558 18.833C51.7819 18.833 50.1195 17.6256 49.4611 15.5961C49.3683 15.3098 49.5874 15.029 49.8814 15.029H60.8775C61.1191 15.029 61.3201 14.8355 61.3307 14.5877C61.579 8.79407 59.1011 5.14477 53.5305 5.14477ZM49.7512 12.3163C49.4702 12.3163 49.2537 12.0583 49.3203 11.7781C49.8314 9.62813 51.3972 8.29399 53.5609 8.29399C55.8547 8.29399 57.4093 9.64892 57.6832 11.8283C57.7165 12.0933 57.506 12.3163 57.2456 12.3163H49.7512Z" fill="#0030AE"/>
    <path d="M74.5142 5.11359C72.5658 5.13657 70.9477 5.70191 69.7693 6.88457C69.4278 7.22728 68.682 6.99861 68.682 6.5084V5.74073C68.682 5.48047 68.4765 5.26949 68.2229 5.26949H65.1922C64.9387 5.26949 64.7331 5.48047 64.7331 5.74073V21.4798C64.7331 21.74 64.9387 21.951 65.1922 21.951H68.2229C68.4765 21.951 68.682 21.74 68.682 21.4798V13.7506C68.682 11.0067 70.2616 8.97996 72.9347 8.94878C75.1825 8.94878 76.5494 10.3831 76.5494 12.7216V21.4798C76.5494 21.74 76.755 21.951 77.0085 21.951H80.0696C80.3232 21.951 80.5287 21.74 80.5287 21.4798V11.5367C80.5287 7.57684 78.2505 5.11359 74.5142 5.11359Z" fill="#0030AE"/>
    <path d="M93.9554 0.124722H85.5751C85.3215 0.124722 85.116 0.335703 85.116 0.595962V21.4798C85.116 21.74 85.3215 21.951 85.5751 21.951H93.8035C100.365 21.951 105.043 17.3987 105.043 11.0379C105.043 4.64588 100.395 0.124722 93.9554 0.124722ZM94.0465 18.2717H89.6455C89.3919 18.2717 89.1864 18.0607 89.1864 17.8005V4.27525C89.1864 4.01499 89.3919 3.80401 89.6455 3.80401H93.8947C97.8739 3.80401 100.881 6.79733 100.881 11.069C100.881 15.3096 97.9651 18.2717 94.0465 18.2717Z" fill="#0030AE"/>
    <path d="M123.693 21.6618C123.764 21.837 123.931 21.951 124.116 21.951H127.486C127.816 21.951 128.039 21.6037 127.907 21.2926L119.101 0.408767C119.028 0.236337 118.863 0.124722 118.68 0.124722H115.059C114.876 0.124722 114.712 0.235375 114.638 0.406692L105.716 21.2905C105.582 21.6019 105.805 21.951 106.136 21.951H109.35C109.535 21.951 109.702 21.837 109.774 21.6618L111.421 17.6255C111.492 17.4503 111.659 17.3363 111.844 17.3363H121.622C121.807 17.3363 121.974 17.4503 122.046 17.6255L123.693 21.6618ZM113.689 13.7506C113.36 13.7506 113.138 13.4068 113.266 13.0962L116.337 5.62137C116.495 5.23602 117.028 5.2376 117.184 5.62389L120.206 13.0987C120.331 13.409 120.109 13.7506 119.782 13.7506H113.689Z" fill="#0030AE"/>
    <path d="M143.997 21.7526C144.083 21.8771 144.223 21.951 144.372 21.951H148.132C148.506 21.951 148.723 21.5174 148.505 21.2055L133.944 0.321698C133.858 0.19807 133.719 0.124722 133.571 0.124722H129.927C129.554 0.124722 129.337 0.556742 129.552 0.868773L143.997 21.7526Z" fill="#0030AE"/>
    <path d="M129.07 21.2054C128.853 21.5173 129.07 21.9505 129.443 21.9505H133.082C133.231 21.9505 133.372 21.8757 133.457 21.7502L147.727 0.901319C147.941 0.589065 147.723 0.15918 147.351 0.15918H143.948C143.799 0.15918 143.66 0.232696 143.574 0.356562L129.07 21.2054Z" fill="#1FC1A7"/>
    <path d="M149.846 3.47024C150.174 4.08395 149.915 4.24131 149.644 4.24131H146.479C146.218 4.24131 145.823 4.16154 145.647 3.85577L143.746 0.928296C143.457 0.448345 143.536 0.157227 143.994 0.157227H147.257C147.547 0.157227 147.786 0.290983 147.936 0.542761L149.846 3.47024Z" fill="#0030AE"/>
    <path d="M143.997 21.7851C144.083 21.9096 144.223 21.9835 144.372 21.9835H148.132C148.506 21.9835 148.723 21.5499 148.505 21.238L133.944 0.354203C133.858 0.230574 133.719 0.157227 133.571 0.157227H129.927C129.554 0.157227 129.337 0.589246 129.552 0.901278L143.997 21.7851Z" fill="#0030AE"/>
</svg>
