<svg width="270" height="85" viewBox="0 0 270 85" fill="none" xmlns="http://www.w3.org/2000/svg">
<mask id="mask0" mask-type="alpha" maskUnits="userSpaceOnUse" x="0" y="0" width="270" height="85">
<path d="M0 4C0 1.79086 1.79086 0 4 0H270V85H0V4Z" fill="#242730"/>
</mask>
<g mask="url(#mask0)">
<path fill-rule="evenodd" clip-rule="evenodd" d="M131.041 4.39005V20.5464L56.9401 6.82364L56.8382 7.08655L131.041 20.8282V36.9846L50.994 22.1607L50.8921 22.4236L131.041 37.2664V53.4229L45.048 37.4978L44.9461 37.7607L131.041 53.7047V69.861L39.1019 52.8348L39 53.0977L131.041 70.1428V136H131.435L131.435 70.2157L153.994 74.3936V136H154.388V74.4665L176.988 78.6518V136H177.382V78.7248L199.962 82.9063V136H200.356V82.9793L222.936 87.1609V136H223.33V87.2338L245.91 91.4154V136H246.303V91.4883L268.883 95.6699V136H269.277V95.7428L291.857 99.9244V136H292.251V99.9973L342.276 109.261L342.378 108.999L292.251 99.7155V83.5592L348.222 93.9245L348.324 93.6616L292.251 83.2774V67.121L354.168 78.5874L354.27 78.3245L292.251 66.8392V50.6827L360.114 63.2503L360.216 62.9874L292.251 50.4009V34.2446L366.06 47.9133L366.162 47.6504L292.251 33.9628V17.8063L372.006 32.5762L372.108 32.3133L292.251 17.5246V1.36839L377.952 17.2394L378.054 16.9765L292.251 1.08662V-15.0697L383.898 1.90242L384 1.63951L292.251 -15.3515L292.251 -81H291.857L291.857 -15.4245L269.277 -19.606L269.277 -81H268.883L268.883 -19.679L246.303 -23.8606L246.303 -81H245.91L245.91 -23.9335L223.33 -28.1151L223.33 -81H222.936L222.936 -28.188L200.356 -32.3696L200.356 -81H199.962V-32.4425L177.382 -36.6241L177.382 -81H176.988L176.988 -36.697L154.388 -40.8824L154.388 -81H153.994L153.994 -40.9553L131.435 -45.1331V-81H131.041L131.041 -45.2061L80.7242 -54.5242L80.6223 -54.2613L131.041 -44.9243V-28.7679L74.778 -39.1873L74.6761 -38.9244L131.041 -28.4861V-12.33L68.8321 -23.8504L68.7302 -23.5875L131.041 -12.0482V4.10827L62.8861 -8.51333L62.7842 -8.25043L131.041 4.39005ZM131.435 -44.8514V-28.695L153.994 -24.5172V-40.6735L131.435 -44.8514ZM154.388 -40.6006V-24.4442L176.988 -20.2589V-36.4153L154.388 -40.6006ZM177.382 -36.3423V-20.186L199.962 -16.0044V-32.1608L177.382 -36.3423ZM200.356 -32.0878V-15.9315L222.936 -11.7499V-27.9062L200.356 -32.0878ZM223.33 -27.8333V-11.6769L245.91 -7.49535V-23.6517L223.33 -27.8333ZM246.303 -23.5788V-7.42242L268.883 -3.24083V-19.3972L246.303 -23.5788ZM269.277 -19.3243V-3.1679L291.857 1.01368V-15.1427L269.277 -19.3243ZM131.435 37.0576V20.9011L153.994 25.0789V41.2354L131.435 37.0576ZM131.435 20.6193L153.994 24.7971V8.6408L131.435 4.46298V20.6193ZM154.388 41.3083V25.1519L176.988 29.3372V45.4937L154.388 41.3083ZM154.388 24.8701L176.988 29.0554V12.8991L154.388 8.71373V24.8701ZM177.382 45.5666V29.4101L199.962 33.5917V49.7482L177.382 45.5666ZM177.382 29.1283L199.962 33.3099V17.1536L177.382 12.972V29.1283ZM200.356 49.8211V33.6646L222.936 37.8462V54.0027L200.356 49.8211ZM200.356 33.3829L222.936 37.5644V21.4081L200.356 17.2265V33.3829ZM223.33 54.0756V37.9192L245.91 42.1007V58.2572L223.33 54.0756ZM223.33 37.6374L245.91 41.8189V25.6626L223.33 21.481V37.6374ZM246.303 58.3301V42.1737L268.883 46.3553V62.5117L246.303 58.3301ZM246.303 41.8919L268.883 46.0735V29.9171L246.303 25.7355V41.8919ZM269.277 62.5847V46.4282L291.857 50.6098V66.7663L269.277 62.5847ZM269.277 46.1464L291.857 50.328V34.1717L269.277 29.9901V46.1464ZM131.435 -28.4132V-12.257L153.994 -8.07922V-24.2354L131.435 -28.4132ZM154.388 -24.1625V-8.00629L176.988 -3.82095V-19.9771L154.388 -24.1625ZM177.382 -19.9042V-3.74802L199.962 0.433556V-15.7226L177.382 -19.9042ZM200.356 -15.6497V0.506485L222.936 4.68807V-11.4681L200.356 -15.6497ZM223.33 -11.3952V4.761L245.91 8.94259V-7.21358L223.33 -11.3952ZM246.303 -7.14065V9.01552L268.883 13.1971V-2.95905L246.303 -7.14065ZM269.277 -2.88612V13.27L291.857 17.4516V1.29546L269.277 -2.88612ZM131.435 53.4958V37.3394L153.994 41.5172V57.6736L131.435 53.4958ZM154.388 57.7466V41.5901L176.988 45.7755V61.9319L154.388 57.7466ZM177.382 62.0048V45.8484L199.962 50.03V66.1864L177.382 62.0048ZM200.356 66.2594V50.1029L222.936 54.2845V70.4409L200.356 66.2594ZM223.33 70.5139V54.3574L245.91 58.539V74.6954L223.33 70.5139ZM246.303 74.7684V58.6119L268.883 62.7935V78.95L246.303 74.7684ZM269.277 79.0229V62.8665L291.857 67.048V83.2045L269.277 79.0229ZM131.435 -11.9753V4.1812L153.994 8.35902V-7.79745L131.435 -11.9753ZM154.388 -7.72451V8.43195L176.988 12.6173V-3.53917L154.388 -7.72451ZM177.382 -3.46624V12.6902L199.962 16.8718V0.71534L177.382 -3.46624ZM200.356 0.788269V16.9447L222.936 21.1263V4.96986L200.356 0.788269ZM223.33 5.04279V21.1992L245.91 25.3808V9.22437L223.33 5.04279ZM246.303 9.2973V25.4538L268.883 29.6354V13.4789L246.303 9.2973ZM269.277 13.5518V29.7083L291.857 33.8899V17.7334L269.277 13.5518ZM131.435 69.9339V53.7776L153.994 57.9554V74.1118L131.435 69.9339ZM154.388 74.1847V58.0284L176.988 62.2137V78.37L154.388 74.1847ZM177.382 78.443V62.2866L199.962 66.4682V82.6245L177.382 78.443ZM200.356 82.6975V66.5411L222.936 70.7227V86.8791L200.356 82.6975ZM223.33 86.952V70.7957L245.91 74.9772V91.1336L223.33 86.952ZM246.303 91.2065V75.0502L268.883 79.2318V95.3881L246.303 91.2065ZM269.277 95.461V79.3047L291.857 83.4863V99.6426L269.277 95.461Z" fill="url(#paint0_radial)" fill-opacity="0.3"/>
</g>
<defs>
<radialGradient id="paint0_radial" cx="0" cy="0" r="1" gradientUnits="userSpaceOnUse" gradientTransform="translate(182.743 27.6006) rotate(21.7389) scale(126.766 110.712)">
<stop stop-color="white"/>
<stop offset="1" stop-color="white" stop-opacity="0"/>
</radialGradient>
</defs>
</svg>
